<?xml version="1.0" encoding="utf-8"?>
<!-- Generator: Adobe Illustrator 24.0.2, SVG Export Plug-In . SVG Version: 6.00 Build 0)  -->
<svg version="1.1" id="Capa_1" xmlns="http://www.w3.org/2000/svg" xmlns:xlink="http://www.w3.org/1999/xlink" x="0px" y="0px"
	 viewBox="0 0 212.1 212.1" style="enable-background:new 0 0 212.1 212.1;" xml:space="preserve">
<style type="text/css">
	.st0{fill:#090ADC;}
	.st1{fill:#1B98FF;}
	.st2{fill:#FFFFFF;}
</style>
<g>
	<path class="st0" d="M68.1,68.4c0,0,0.1-0.1,0.1-0.2c2-1.1,4.1-2,6.3-2.6c4.1-1.2,8.3-1.3,12.4-0.5v0.1c0.1,0.1,0.2,0.1,0.3,0
		c0,0,0,0,0,0c0.3,0,0.5,0.1,0.7,0.2s0.4,0.1,0.7,0.2c-0.1,0.1-0.2,0.2-0.1,0.3c0,0.2,0.2,0.2,0.5,0c0.1,0,0.1,0,0.2-0.1
		c0,0,0,0,0,0c0.2,0.1,0.4,0.2,0.6,0.2c0.2,0,0.4,0.1,0.6,0.2c0,0-0.1,0-0.1,0.1c0,0,0,0,0,0c-0.3,0.1-0.3,0.2-0.2,0.4
		c0,0.1,0.2,0.1,0.5,0c0.2-0.2,0.2-0.3,0.2-0.3l1.1,0.5c0,0.1,0,0.1-0.1,0.1c-0.1,0.1-0.2,0.2-0.2,0.4c0,0.2,0.2,0.2,0.5,0.1
		c0.1-0.2,0.2-0.3,0.2-0.3c0.2,0.1,0.3,0.2,0.5,0.2c0.2,0.1,0.4,0.1,0.5,0.2c-0.3,0.2-0.3,0.3-0.2,0.5c0.1,0.2,0.3,0.2,0.5,0
		c0.1,0,0.1-0.1,0.2-0.2c0.3,0.2,0.5,0.3,0.8,0.5c0,0.1-0.1,0.2-0.1,0.3c0.1,0.2,0.4,0.2,0.6,0.1c0,0,0,0,0,0c0.4,0.2,0.7,0.4,1,0.6
		c0.1,0.1,0.2,0.2,0.2,0.2c0.5,0.4,1,0.7,1.5,1.1c0.5,0.4,0.9,0.8,1.4,1.2c-0.3,0.2-0.4,0.4-0.3,0.6c0.2,0.3,0.4,0.3,0.8,0l0.1-0.1
		c0.3,0.2,0.6,0.5,0.8,0.8c0.3,0.3,0.5,0.5,0.8,0.8c-0.2-0.1-0.5-0.1-0.7,0.1c-0.4,0.3-0.6,0.5-0.5,0.8c0.2,0.3,0.5,0.3,0.9,0
		c0.3-0.2,0.4-0.4,0.4-0.6c0.2,0.2,0.4,0.4,0.5,0.6c-0.3,0.3-0.4,0.5-0.2,0.6c0.1,0.3,0.4,0.4,0.8,0.2c0.2,0.3,0.4,0.5,0.5,0.7
		c0.2,0.2,0.3,0.4,0.5,0.7c-0.5,0.3-0.7,0.6-0.5,0.9c0.1,0.1,0.3,0.2,0.5,0.2l-0.8,0.5c0.1-0.2,0.1-0.4,0-0.5c-0.2-0.3-0.5-0.3-1,0
		c-0.5,0.3-0.6,0.6-0.5,0.9c0.1,0.2,0.3,0.3,0.5,0.2l-1.1,0.7c0.2-0.2,0.3-0.4,0.2-0.7c-0.2-0.3-0.5-0.3-1,0
		c-0.5,0.3-0.7,0.6-0.5,0.9c0.2,0.2,0.5,0.3,0.8,0.2l-4.9,3c0,0,0-0.1,0-0.1c0,0,0-0.1,0-0.1c0.2-0.1,0.2-0.4,0.1-0.6c0,0,0,0,0,0
		c-0.1-0.2-0.3-0.3-0.6-0.2c-0.1-0.2-0.3-0.4-0.5-0.6c0.2,0.2,0.5,0.2,0.9-0.1c0.5-0.3,0.6-0.5,0.4-0.8c0-0.1-0.2-0.2-0.3-0.2
		c-0.2,0-0.4,0.1-0.6,0.2c-0.2,0.1-0.3,0.2-0.5,0.4c-0.1,0.2-0.1,0.3,0,0.4c-0.1-0.1-0.2-0.2-0.3-0.3c-0.1-0.1-0.2-0.2-0.3-0.3
		c0.4-0.3,0.5-0.5,0.3-0.8c-0.2-0.3-0.5-0.3-0.9,0h-0.1c-0.1-0.1-0.2-0.2-0.3-0.3c-0.1-0.1-0.2-0.2-0.3-0.3c0,0,0-0.1-0.1-0.1
		c0,0,0,0,0,0c-0.3-0.3-0.6-0.5-0.9-0.7c-0.3-0.2-0.6-0.5-0.9-0.7c0,0,0.1,0,0.1,0c0,0,0.1,0,0.1,0c0.4-0.2,0.5-0.4,0.3-0.7
		s-0.4-0.3-0.8,0c-0.2,0.1-0.3,0.2-0.4,0.4c-0.2-0.2-0.4-0.3-0.7-0.4c0.3-0.3,0.3-0.5,0.2-0.6c-0.2-0.2-0.5-0.2-0.7,0c0,0,0,0,0,0
		c-0.1,0.1-0.2,0.1-0.3,0.2c-0.1-0.1-0.3-0.2-0.4-0.2c-0.1,0-0.3-0.1-0.4-0.2c0.2-0.1,0.2-0.2,0.2-0.4c0,0,0,0,0-0.1
		c-0.1-0.2-0.3-0.2-0.6,0c-0.1,0-0.3,0.1-0.3,0.2c-0.3-0.1-0.6-0.2-0.9-0.3c0.3-0.2,0.3-0.3,0.2-0.5c-0.1-0.2-0.3-0.2-0.6,0
		c-0.2,0.1-0.3,0.2-0.3,0.4c-1.4-0.3-2.8-0.4-4.2-0.4v-0.2c-0.1-0.2-0.2-0.2-0.5-0.1c-0.2,0.1-0.2,0.2-0.2,0.3
		c-0.9,0-1.9,0.2-2.8,0.5c0.1-0.1,0.1-0.1,0.1-0.2c-0.1-0.2-0.3-0.2-0.5-0.1c-0.3,0.2-0.3,0.3-0.2,0.5c-0.3,0.1-0.5,0.2-0.8,0.3
		c-0.3,0.1-0.5,0.2-0.8,0.3c0,0-0.1,0.1-0.2,0.1v0.1c-1.3,0.5-2.4,1.1-3.5,2c0,0-0.1,0-0.1,0c0,0-0.1,0-0.1,0
		c-0.2,0.1-0.2,0.2-0.2,0.3c-0.6,0.6-1.2,1.1-1.7,1.7c-0.6,0.6-1,1.2-1.4,1.9c0-0.1,0-0.1-0.1-0.2c-0.1-0.1-0.3-0.1-0.4-0.1
		c0,0,0,0-0.1,0.1c-0.3,0.2-0.4,0.4-0.3,0.5c0.1,0.2,0.3,0.2,0.5,0c0.1,0,0.1,0,0.2-0.1c-0.3,0.4-0.5,0.8-0.7,1.3
		c-0.3,0.2-0.4,0.4-0.3,0.5h0.1c-0.9,2.1-1.4,4.3-1.4,6.6v0.6c0,0.2,0,0.4,0.1,0.6c-0.3,0.3-0.4,0.5-0.3,0.6
		c0.1,0.1,0.2,0.2,0.4,0.2c0,0.1,0,0.2,0,0.3c0,0.1,0,0.2,0,0.3c0,0-0.1,0.1-0.2,0.1c-0.1,0-0.1,0-0.2,0.1c-0.4,0.3-0.6,0.5-0.5,0.8
		c0.2,0.3,0.5,0.3,0.9,0c0.1,0.3,0.2,0.6,0.3,0.9c0.1,0.3,0.2,0.6,0.3,0.8c-0.2,0.1-0.3,0.4-0.2,0.6c0.1,0.2,0.3,0.2,0.5,0.2
		c0,0.2,0.1,0.4,0.2,0.5c-0.2,0-0.3,0.1-0.5,0.2c-0.5,0.3-0.6,0.6-0.5,0.9c0.2,0.3,0.5,0.3,1,0c0.1,0,0.3-0.2,0.3-0.3
		c0,0.1,0.1,0.2,0.2,0.2c0.1,0.1,0.1,0.1,0.2,0.2c-0.1,0.1-0.1,0.3-0.1,0.5c0,0.2,0.2,0.2,0.5,0.2c0.1,0.1,0.2,0.2,0.2,0.4
		c-0.2,0-0.3,0.1-0.5,0.2c-0.6,0.3-0.7,0.6-0.5,1c0.1,0.1,0.3,0.2,0.5,0.2c0.2,0,0.5-0.1,0.7-0.2c0.1-0.1,0.3-0.2,0.4-0.4
		c0.1,0.1,0.2,0.2,0.2,0.3c-0.3,0.3-0.4,0.5-0.2,0.7c0.2,0.3,0.5,0.4,0.9,0.2l0.9,0.9l-0.5,0.3c0.2-0.2,0.2-0.5,0.1-0.7
		c-0.2-0.4-0.6-0.4-1.2,0c-0.2,0.1-0.4,0.3-0.5,0.5c-0.1,0.2-0.1,0.4,0,0.6c0.2,0.3,0.4,0.3,0.8,0.2l-1.9,1.3
		c-0.1,0-0.2,0.1-0.3,0.1c-0.1,0-0.2,0.1-0.3,0.2c-0.2,0.1-0.4,0.3-0.5,0.5l-0.5,0.3c-0.3,0-0.6,0-0.8,0.2c-0.3,0.1-0.6,0.4-0.7,0.8
		l-0.2,0.2c-0.4-0.1-0.8-0.1-1.1,0.2c-0.5,0.3-0.7,0.6-0.6,1h-0.1c-0.3-0.3-0.6-0.2-1.1,0.1c-0.2,0.1-0.4,0.3-0.6,0.5
		c-0.1,0.2-0.1,0.4,0,0.6l0,0c-0.3-0.3-0.7-0.3-1.3-0.1c-0.6,0.4-0.8,0.7-0.6,1.1l0.2,0.2l-0.2,0.1c0-0.1,0-0.2-0.1-0.3
		c-0.1-0.2-0.3-0.2-0.5-0.2c-0.2,0-0.5,0.1-0.7,0.2c-0.2,0.1-0.4,0.3-0.6,0.6c-0.1,0.2-0.1,0.4,0,0.6c0,0.2,0.2,0.2,0.5,0.2
		l-0.6,0.5c0.1-0.2,0.2-0.4,0.2-0.7c-0.1-0.1-0.2-0.2-0.3-0.2c0.2-0.3,0.4-0.6,0.5-1c0-0.1,0.1-0.3,0.2-0.4c0.3,0.2,0.7,0.2,1.1-0.1
		c0.2-0.1,0.4-0.3,0.5-0.6c0.1-0.2,0.1-0.4,0-0.5c-0.2-0.3-0.6-0.3-1.2-0.1l-0.2,0.2c0.1-0.2,0.1-0.4,0.2-0.6
		c0.2,0.2,0.5,0.1,0.9-0.1c0.5-0.4,0.7-0.7,0.5-1.1c-0.2-0.4-0.6-0.4-1.1,0c-0.1,0-0.1,0-0.1,0.1c0.1-0.2,0.1-0.5,0.1-0.7
		c0.3,0.2,0.7,0.2,0.9-0.1c0.6-0.3,0.7-0.6,0.5-1c-0.2-0.4-0.6-0.4-1.1,0c-0.1,0.1-0.3,0.1-0.4,0.2c0-0.3,0-0.5,0-0.8
		s-0.1-0.6-0.1-1c0.2-0.2,0.3-0.4,0.2-0.7c0,0-0.1-0.1-0.4-0.2c0-0.1-0.1-0.1-0.1-0.2c0-0.1,0-0.2-0.1-0.2c0,0,0.1-0.1,0.2-0.1
		c0.1,0,0.1,0,0.2-0.1c0.2-0.1,0.4-0.2,0.5-0.4c0.1-0.2,0.1-0.3,0-0.4c-0.2-0.3-0.5-0.3-1,0c0,0-0.1-0.1-0.1-0.2
		c0-0.1,0-0.1-0.1-0.2l-0.5-1.4c0.2-0.1,0.3-0.4,0.2-0.6c0,0,0,0,0,0c-0.1-0.2-0.3-0.3-0.5-0.2l-0.2-0.7c0.2,0,0.4,0,0.6-0.2
		c0.4-0.2,0.5-0.4,0.4-0.7c-0.2-0.3-0.5-0.3-0.8,0c-0.1,0.1-0.2,0.1-0.3,0.2c-0.1-0.3-0.2-0.7-0.2-1c-0.1-0.3-0.1-0.7-0.2-1
		c0.2-0.2,0.3-0.4,0.2-0.5c0-0.1-0.1-0.2-0.2-0.2c-0.1-0.3-0.1-0.5-0.2-0.8c0.1,0,0.2,0,0.3-0.1c0.4-0.2,0.5-0.4,0.3-0.6
		c-0.1-0.2-0.3-0.2-0.6,0h-0.1c-0.1-0.4-0.1-0.8-0.1-1.3c0-0.5,0-0.9,0-1.3c0-2.7,0.4-5.4,1.3-8c0.8-2.5,2-4.9,3.5-7.1L59.9,76
		c0,0.1,0.1,0.1,0.2,0c0.1,0,0.1,0,0.2-0.1c0,0,0,0,0,0c-0.1-0.1-0.2-0.1-0.2,0L60,75.9c0.3-0.5,0.6-1,1-1.4
		c0.4-0.4,0.7-0.9,1.1-1.3c0,0.1,0.1,0.1,0.2,0l0.1-0.2c0,0-0.1-0.1-0.1-0.1c0.9-0.9,1.8-1.7,2.7-2.5C65.9,69.7,67,69,68.1,68.4
		L68.1,68.4z M56,92.4c0.3-0.2,0.4-0.4,0.2-0.5c-0.1-0.2-0.3-0.2-0.6,0c-0.3,0.2-0.4,0.4-0.3,0.5C55.5,92.6,55.7,92.6,56,92.4z
		 M55.7,112.7c0.1,0,0.3,0,0.4-0.1l-0.3,0.2l-0.3,0.2C55.6,113,55.7,112.9,55.7,112.7z M56,90.2c-0.3,0.1-0.4,0.3-0.3,0.5
		c0.2,0.2,0.4,0.2,0.6,0.1c0.3-0.2,0.4-0.4,0.2-0.5C56.4,90.1,56.2,90.1,56,90.2z M56.3,88.5C56,88.6,55.9,88.8,56,89
		c0,0.1,0.1,0.2,0.2,0.2c0.1,0,0.2-0.1,0.3-0.2c0.3-0.2,0.4-0.3,0.3-0.5C56.7,88.4,56.5,88.4,56.3,88.5z M56.5,86.9
		c-0.1,0.1-0.2,0.2-0.2,0.4c0.1,0.2,0.2,0.2,0.5,0.1c0.2-0.2,0.3-0.4,0.2-0.5C56.9,86.7,56.8,86.7,56.5,86.9L56.5,86.9z M57.1,96.5
		c0.4-0.2,0.5-0.4,0.4-0.7c-0.2-0.2-0.5-0.2-0.8,0c-0.4,0.2-0.5,0.4-0.4,0.7C56.5,96.7,56.7,96.7,57.1,96.5z M56.8,85.2
		c-0.1,0.1-0.2,0.2-0.2,0.4c0.1,0.1,0.3,0.1,0.5,0c0.3-0.2,0.3-0.3,0.2-0.4C57.2,85.1,57,85.1,56.8,85.2
		C56.8,85.2,56.8,85.2,56.8,85.2z M57,94.2c-0.3,0.2-0.4,0.4-0.3,0.6c0.1,0.1,0.2,0.2,0.3,0.2c0.1,0,0.3-0.1,0.4-0.2
		c0.4-0.2,0.5-0.4,0.4-0.6C57.6,94,57.3,94,57,94.2L57,94.2z M57.1,83.5c-0.2,0.1-0.2,0.2-0.2,0.3c0,0.2,0.2,0.2,0.4,0.1
		c0.3-0.2,0.3-0.3,0.2-0.4C57.4,83.4,57.2,83.4,57.1,83.5L57.1,83.5z M57.3,92.5C57,92.7,56.9,92.9,57,93c0.1,0.3,0.3,0.3,0.7,0.1
		c0.3-0.2,0.4-0.4,0.3-0.6C57.8,92.3,57.6,92.3,57.3,92.5L57.3,92.5z M57.3,81.9c-0.1,0.1-0.1,0.2-0.2,0.3c0.1,0.1,0.2,0.1,0.4,0
		c0.2-0.1,0.3-0.2,0.2-0.3C57.6,81.8,57.5,81.8,57.3,81.9L57.3,81.9z M57.6,90.8c-0.3,0.2-0.4,0.4-0.3,0.5c0.1,0.2,0.3,0.2,0.6,0
		c0.3-0.2,0.4-0.4,0.3-0.5C58.1,90.6,57.9,90.6,57.6,90.8L57.6,90.8z M58.2,100.6c0.2-0.1,0.4-0.2,0.5-0.4c0.1-0.2,0.1-0.3,0-0.4
		c-0.2-0.3-0.5-0.3-0.9,0c-0.4,0.2-0.6,0.4-0.5,0.8c0.1,0.1,0.3,0.2,0.4,0.2C57.8,100.8,58,100.7,58.2,100.6L58.2,100.6z M57.6,80.2
		c-0.1,0-0.2,0.1-0.2,0.2c0.1,0.1,0.2,0.1,0.3,0c0,0,0,0,0,0c0.3,0,0.3-0.1,0.2-0.2C57.9,80.1,57.8,80.1,57.6,80.2L57.6,80.2z
		 M58.1,89.7c0.3-0.2,0.4-0.4,0.3-0.5c-0.1-0.2-0.3-0.2-0.6,0c-0.3,0.2-0.3,0.3-0.2,0.5C57.6,89.8,57.8,89.8,58.1,89.7L58.1,89.7z
		 M58,98.1c-0.4,0.2-0.6,0.4-0.5,0.8c0.2,0.3,0.5,0.3,0.9,0c0.4-0.3,0.5-0.6,0.4-0.8C58.6,97.9,58.4,97.9,58,98.1L58,98.1z
		 M58.1,87.5c-0.3,0.1-0.3,0.3-0.2,0.5c0.1,0.2,0.3,0.2,0.5,0c0.2-0.1,0.3-0.3,0.2-0.5C58.5,87.3,58.3,87.3,58.1,87.5L58.1,87.5z
		 M58.7,97.1c0.4-0.2,0.5-0.4,0.4-0.7c-0.1-0.3-0.4-0.3-0.8,0c-0.4,0.2-0.6,0.4-0.5,0.7C58.1,97.4,58.3,97.4,58.7,97.1L58.7,97.1z
		 M58.4,85.8c-0.3,0.1-0.4,0.2-0.2,0.4c0.1,0.2,0.3,0.2,0.5,0.1c0.2-0.2,0.3-0.3,0.2-0.5C58.8,85.6,58.6,85.6,58.4,85.8L58.4,85.8z
		 M58.6,94.8c-0.4,0.2-0.5,0.4-0.4,0.7c0.2,0.2,0.4,0.2,0.8,0c0.5-0.2,0.6-0.4,0.4-0.7C59.2,94.5,58.9,94.5,58.6,94.8L58.6,94.8z
		 M59.3,104.6c0.5-0.3,0.6-0.6,0.5-0.9c-0.1-0.1-0.3-0.2-0.4-0.2c-0.2,0-0.4,0.1-0.6,0.2c-0.5,0.3-0.7,0.6-0.5,0.9
		C58.5,104.9,58.8,104.9,59.3,104.6L59.3,104.6z M58.7,84.1c-0.3,0.1-0.3,0.2-0.2,0.4c0,0.1,0.2,0.1,0.5,0c0.3-0.1,0.3-0.2,0.2-0.4
		C58.9,84,58.8,84,58.7,84.1L58.7,84.1z M58.9,93.1c-0.4,0.2-0.5,0.4-0.4,0.6c0.2,0.2,0.5,0.2,0.8,0c0.4-0.2,0.5-0.4,0.3-0.6
		C59.4,92.9,59.2,92.9,58.9,93.1L58.9,93.1z M59,102.1c-0.2,0.1-0.4,0.2-0.5,0.4c-0.1,0.2-0.1,0.3,0,0.4c0.1,0.1,0.2,0.2,0.4,0.2
		c0.2,0,0.4-0.1,0.6-0.2c0.5-0.3,0.7-0.6,0.5-0.9C59.9,101.7,59.6,101.7,59,102.1L59,102.1z M58.9,82.5c-0.2,0.1-0.3,0.2-0.2,0.3
		c0,0.2,0.2,0.2,0.4,0.1c0.2-0.2,0.2-0.3,0.2-0.4C59.3,82.4,59.2,82.4,58.9,82.5L58.9,82.5z M59.2,91.4c-0.4,0.2-0.5,0.3-0.4,0.5
		c0.2,0.3,0.4,0.3,0.7,0.1c0.4-0.2,0.5-0.4,0.3-0.6C59.7,91.2,59.5,91.2,59.2,91.4L59.2,91.4z M59.3,100.4c-0.2,0.1-0.4,0.2-0.5,0.4
		c-0.1,0.2-0.1,0.3,0,0.4c0.2,0.3,0.5,0.3,0.9,0c0.5-0.3,0.6-0.5,0.5-0.8c-0.1-0.1-0.2-0.2-0.3-0.2
		C59.7,100.2,59.5,100.3,59.3,100.4L59.3,100.4z M59.2,80.8C59,80.9,59,81,59.1,81.1c0,0.1,0.1,0.1,0.3,0c0.2-0.1,0.3-0.2,0.2-0.3
		C59.5,80.7,59.4,80.7,59.2,80.8L59.2,80.8z M59.4,89.8c-0.3,0.2-0.4,0.4-0.3,0.5c0.2,0.2,0.4,0.2,0.7,0c0.3-0.2,0.4-0.4,0.2-0.5
		C59.9,89.6,59.7,89.6,59.4,89.8z M59.6,98.7c-0.5,0.2-0.7,0.5-0.5,0.8c0.2,0.3,0.5,0.3,0.9,0.1c0.4-0.3,0.6-0.5,0.5-0.8
		C60.3,98.4,60,98.4,59.6,98.7L59.6,98.7z M60.4,108.7c0.6-0.4,0.8-0.7,0.6-1.1c-0.3-0.4-0.7-0.4-1.2,0c-0.6,0.3-0.8,0.6-0.6,1
		C59.4,109.1,59.8,109.1,60.4,108.7L60.4,108.7z M60.2,88.1c-0.1-0.2-0.3-0.2-0.5,0c-0.3,0.2-0.4,0.4-0.3,0.5
		c0.2,0.2,0.4,0.2,0.6,0.1C60.3,88.4,60.4,88.2,60.2,88.1z M59.6,79.1c-0.2,0.1-0.2,0.2-0.2,0.2c0,0.1,0.1,0.1,0.3,0.1
		c0.1-0.1,0.1-0.2,0.2-0.3C59.8,79,59.7,79,59.6,79.1C59.6,79.1,59.5,79.1,59.6,79.1L59.6,79.1z M59.9,97c-0.2,0.1-0.3,0.2-0.4,0.4
		c-0.1,0.2-0.1,0.3,0,0.4c0.2,0.3,0.5,0.3,0.8,0c0.4-0.3,0.6-0.5,0.5-0.8C60.6,96.8,60.3,96.8,59.9,97L59.9,97z M60.1,106
		c-0.6,0.3-0.8,0.6-0.6,1c0.2,0.3,0.6,0.3,1.2,0.1c0.5-0.4,0.7-0.7,0.5-1.1C61,105.6,60.6,105.6,60.1,106L60.1,106z M60.2,86.9
		c0.3-0.1,0.4-0.3,0.3-0.5c-0.1-0.3-0.3-0.3-0.5,0c-0.3,0.1-0.4,0.3-0.3,0.5C59.8,87.1,60,87.1,60.2,86.9z M59.8,77.5
		c-0.1,0.1-0.1,0.2-0.1,0.2c0,0.2,0.1,0.2,0.2,0c0.1-0.1,0.2-0.2,0.2-0.2C60,77.4,59.9,77.4,59.8,77.5L59.8,77.5z M60.3,104.3
		c-0.6,0.3-0.7,0.6-0.5,0.9c0.1,0.2,0.3,0.2,0.5,0.2c0.2,0,0.5-0.1,0.7-0.2c0.6-0.3,0.7-0.6,0.5-1C61.2,104,60.9,104,60.3,104.3
		L60.3,104.3z M60.2,95.4c-0.4,0.2-0.5,0.4-0.4,0.7c0.2,0.2,0.4,0.2,0.8,0.1c0.4-0.3,0.5-0.5,0.4-0.8C60.8,95.1,60.4,95.1,60.2,95.4
		C60.2,95.3,60.2,95.3,60.2,95.4L60.2,95.4z M60.2,84.7C60,84.9,59.9,85,60,85.1c0.1,0.2,0.2,0.2,0.5,0.1c0.2-0.2,0.3-0.4,0.2-0.5
		C60.6,84.6,60.4,84.6,60.2,84.7C60.2,84.7,60.2,84.7,60.2,84.7z M60.8,94.4c0.4-0.2,0.5-0.4,0.4-0.7c-0.2-0.2-0.5-0.2-0.8,0
		c-0.4,0.2-0.5,0.4-0.4,0.7C60.2,94.6,60.4,94.6,60.8,94.4L60.8,94.4z M60.6,102.7c-0.5,0.3-0.7,0.6-0.5,0.9
		c0.1,0.1,0.3,0.2,0.5,0.2c0.2,0,0.4,0,0.6-0.2c0.5-0.2,0.7-0.6,0.5-0.9C61.5,102.4,61.1,102.4,60.6,102.7z M60.5,83.1
		c-0.2,0.1-0.3,0.2-0.2,0.4c0.1,0.1,0.3,0.1,0.5,0c0.2-0.1,0.3-0.2,0.2-0.4C60.9,83,60.7,83,60.5,83.1z M61.4,101.9
		c0.5-0.3,0.6-0.6,0.5-0.9c-0.2-0.3-0.5-0.3-1,0c-0.6,0.3-0.7,0.5-0.5,0.8C60.5,102.1,60.9,102.2,61.4,101.9L61.4,101.9z M60.7,92
		c-0.3,0.2-0.4,0.4-0.3,0.6c0.1,0.3,0.3,0.3,0.7,0c0.4-0.2,0.5-0.4,0.4-0.6C61.3,91.9,61,91.9,60.7,92L60.7,92z M60.8,81.4
		c-0.3,0.1-0.3,0.2-0.2,0.3c0.1,0.2,0.2,0.2,0.4,0.1c0.2-0.2,0.3-0.3,0.2-0.4C61.1,81.3,60.9,81.3,60.8,81.4L60.8,81.4z M61,90.4
		c-0.3,0.2-0.4,0.4-0.3,0.6c0.1,0.2,0.3,0.2,0.7,0c0.3-0.2,0.4-0.4,0.3-0.6C61.6,90.2,61.3,90.2,61,90.4z M61.7,100.2
		c0.2-0.1,0.3-0.2,0.5-0.4c0.1-0.2,0.1-0.3,0-0.4c-0.2-0.3-0.5-0.3-1,0c-0.4,0.3-0.6,0.5-0.5,0.8C60.9,100.5,61.2,100.5,61.7,100.2z
		 M61.1,79.7c-0.1,0.1-0.2,0.2-0.2,0.3c0.1,0.1,0.3,0.1,0.4,0c0.2-0.1,0.3-0.2,0.2-0.3C61.3,79.6,61.2,79.6,61.1,79.7L61.1,79.7z
		 M61.3,88.7C61,88.8,60.9,89,61,89.2c0.1,0.2,0.3,0.2,0.6,0c0.3-0.2,0.4-0.4,0.3-0.5C61.8,88.5,61.6,88.5,61.3,88.7L61.3,88.7z
		 M61.4,97.6c-0.4,0.3-0.6,0.5-0.5,0.8c0.2,0.3,0.5,0.3,0.9,0.1c0.2-0.1,0.3-0.2,0.5-0.4c0.1-0.2,0.1-0.3,0-0.4
		C62.2,97.4,61.9,97.4,61.4,97.6L61.4,97.6z M62.3,107.7c0.5-0.3,0.7-0.7,0.5-1.1c-0.2-0.4-0.6-0.4-1.2,0c-0.6,0.3-0.7,0.7-0.5,1.1
		C61.3,108,61.7,108,62.3,107.7L62.3,107.7z M61.4,78.1c-0.1,0-0.2,0.1-0.2,0.2c0.1,0.2,0.2,0.2,0.3,0.1c0.2-0.1,0.3-0.2,0.2-0.3
		C61.6,78,61.5,78,61.4,78.1z M62.1,87c-0.1-0.2-0.3-0.2-0.6,0c-0.3,0.2-0.3,0.4-0.2,0.5c0.1,0.2,0.3,0.2,0.5,0.1
		C62.1,87.4,62.2,87.2,62.1,87L62.1,87z M61.7,96c-0.4,0.2-0.6,0.4-0.5,0.8c0.2,0.3,0.5,0.3,0.9,0c0.1-0.1,0.3-0.2,0.4-0.4
		c0.1-0.1,0.1-0.3,0-0.4C62.4,95.7,62.1,95.7,61.7,96L61.7,96z M61.9,104.9c-0.6,0.3-0.7,0.6-0.5,1c0.1,0.2,0.3,0.2,0.5,0.2
		c0.2,0,0.5-0.1,0.7-0.2c0.5-0.4,0.7-0.7,0.5-1.1C62.8,104.6,62.4,104.6,61.9,104.9z M61.7,76.4c-0.1,0-0.2,0.1-0.2,0.2
		c0.1,0,0.2,0,0.3,0c0.1-0.1,0.1-0.2,0.1-0.2C61.9,76.2,61.8,76.2,61.7,76.4z M62.3,85.4c-0.1-0.2-0.3-0.2-0.5,0
		c-0.3,0.2-0.3,0.3-0.2,0.5c0.1,0.2,0.3,0.2,0.5,0C62.4,85.7,62.4,85.6,62.3,85.4L62.3,85.4z M62,94.3c-0.4,0.2-0.5,0.4-0.4,0.7
		c0.2,0.3,0.4,0.3,0.8,0.1c0.4-0.3,0.5-0.6,0.4-0.8C62.6,94.1,62.4,94.1,62,94.3L62,94.3z M62.7,104.2c0.6-0.3,0.7-0.6,0.5-1
		c-0.2-0.3-0.6-0.3-1.1,0c-0.6,0.3-0.7,0.6-0.5,0.9C61.8,104.5,62.2,104.5,62.7,104.2L62.7,104.2z M61.9,74.7c0,0-0.1,0.1-0.1,0.2
		c0,0.1,0.1,0.1,0.2,0.1c0.1-0.1,0.1-0.2,0.1-0.2C62.1,74.7,62,74.7,61.9,74.7z M62.3,84.1c0.2-0.2,0.3-0.3,0.2-0.5
		c-0.1-0.1-0.3-0.2-0.4-0.1c0,0,0,0-0.1,0.1c-0.3,0.1-0.4,0.2-0.2,0.4C62,84.2,62.1,84.2,62.3,84.1z M62.3,92.6
		c-0.4,0.2-0.5,0.4-0.4,0.7c0.2,0.2,0.4,0.2,0.8,0c0.4-0.2,0.5-0.4,0.4-0.7C62.9,92.4,62.7,92.4,62.3,92.6z M62.4,101.6
		c-0.5,0.3-0.6,0.6-0.5,0.9c0.2,0.3,0.6,0.3,1.1,0c0.5-0.3,0.6-0.6,0.5-0.9C63.3,101.3,62.9,101.3,62.4,101.6L62.4,101.6z M62.3,82
		c-0.3,0.1-0.3,0.2-0.2,0.4c0.1,0.2,0.2,0.2,0.4,0c0.3-0.1,0.3-0.2,0.2-0.4C62.7,82,62.5,82,62.3,82L62.3,82z M62.6,91
		c-0.4,0.2-0.5,0.4-0.4,0.6c0.2,0.2,0.5,0.2,0.8,0c0.4-0.2,0.5-0.4,0.3-0.6C63.2,90.8,62.9,90.8,62.6,91L62.6,91z M63.3,100.8
		c0.5-0.3,0.6-0.6,0.5-0.9c-0.2-0.3-0.5-0.3-1,0c-0.2,0.1-0.3,0.2-0.5,0.4c-0.1,0.2-0.1,0.3,0,0.4c0.1,0.1,0.2,0.2,0.4,0.2
		C62.9,101,63.1,100.9,63.3,100.8L63.3,100.8z M62.6,80.3c-0.2,0.1-0.3,0.2-0.2,0.3c0,0.2,0.1,0.2,0.4,0.1c0.2-0.2,0.2-0.3,0.2-0.4
		C63,80.2,62.9,80.2,62.6,80.3z M62.9,89.3c-0.4,0.2-0.5,0.4-0.4,0.6c0.2,0.2,0.5,0.2,0.6,0c0,0,0,0,0,0c0.4-0.2,0.5-0.4,0.3-0.6
		C63.4,89.1,63.2,89.1,62.9,89.3z M63,98.3c-0.2,0.1-0.3,0.2-0.5,0.4c-0.1,0.2-0.1,0.3,0,0.4c0.2,0.3,0.5,0.3,0.9,0
		c0.5-0.3,0.7-0.5,0.5-0.8c-0.1-0.1-0.2-0.2-0.3-0.2C63.4,98.1,63.2,98.2,63,98.3z M63,78.7c-0.2,0.1-0.3,0.2-0.2,0.3
		c0,0.1,0.1,0.1,0.3,0c0.2-0.1,0.3-0.2,0.2-0.3C63.3,78.6,63.2,78.6,63,78.7z M63.1,87.6c-0.3,0.2-0.4,0.4-0.3,0.5
		c0.2,0.2,0.4,0.2,0.6,0c0.1,0,0.3-0.1,0.3-0.2c0.1-0.1,0.1-0.2,0-0.3c0,0,0,0,0,0C63.6,87.5,63.4,87.5,63.1,87.6z M64.1,106.6
		c0.2-0.1,0.4-0.3,0.6-0.5c0.1-0.2,0.1-0.4,0-0.6c-0.3-0.4-0.7-0.4-1.2,0c-0.2,0.1-0.4,0.3-0.6,0.5c-0.1,0.2-0.1,0.4,0,0.6
		C63.1,107,63.5,107,64.1,106.6L64.1,106.6z M63.8,97.4c0.5-0.3,0.6-0.5,0.4-0.8c-0.1-0.1-0.2-0.2-0.3-0.2c-0.2,0-0.3,0.1-0.5,0.2
		c-0.5,0.3-0.6,0.5-0.5,0.8C63.1,97.6,63.4,97.7,63.8,97.4z M63.7,86.5c0.3-0.2,0.3-0.3,0.2-0.5c-0.1-0.2-0.3-0.2-0.5,0
		c-0.3,0.2-0.4,0.4-0.3,0.5C63.3,86.6,63.5,86.6,63.7,86.5L63.7,86.5z M63.3,77c-0.2,0.1-0.2,0.2-0.2,0.2c0,0.2,0.1,0.2,0.3,0.1
		c0.1-0.1,0.1-0.2,0.2-0.3C63.5,76.9,63.4,76.9,63.3,77C63.3,77,63.3,77,63.3,77z M64,95.7c0.5-0.2,0.6-0.5,0.4-0.8
		c-0.1-0.3-0.4-0.3-0.8,0c-0.2,0.1-0.3,0.2-0.4,0.4c-0.1,0.2-0.1,0.3,0,0.4C63.4,96,63.7,96,64,95.7L64,95.7z M63.8,103.9
		c-0.6,0.3-0.8,0.6-0.6,1c0.3,0.3,0.6,0.3,1.1,0.1c0.6-0.4,0.8-0.7,0.6-1.1C64.7,103.5,64.3,103.5,63.8,103.9z M63.5,75.3
		c-0.1,0.1-0.1,0.2-0.1,0.2c0,0.2,0.1,0.2,0.2,0c0.1-0.1,0.2-0.2,0.2-0.2C63.7,75.3,63.6,75.3,63.5,75.3z M64,84.7
		c0.3-0.1,0.4-0.3,0.3-0.5c-0.1-0.3-0.3-0.3-0.5,0c-0.3,0.2-0.4,0.4-0.3,0.5C63.5,85,63.7,85,64,84.7z M64.6,103.2
		c0.6-0.3,0.7-0.6,0.5-1c-0.1-0.1-0.3-0.2-0.5-0.2c-0.2,0-0.5,0.1-0.7,0.2c-0.6,0.3-0.7,0.6-0.5,1C63.7,103.5,64.1,103.5,64.6,103.2
		L64.6,103.2z M64.3,94c0.4-0.3,0.5-0.5,0.4-0.8c-0.2-0.2-0.5-0.3-0.8-0.1c0,0,0,0-0.1,0.1c-0.1,0.1-0.3,0.2-0.4,0.3
		c-0.1,0.1-0.1,0.2,0,0.3c0,0,0,0,0,0C63.6,94.2,63.9,94.2,64.3,94L64.3,94z M81.9,107.2c2.6,0,5.2-0.6,7.5-1.9
		c2.4-1.2,4.4-3.2,6.1-6l8.8,5.3c-1.5,2.5-3.4,4.7-5.6,6.6c-2.2,1.8-4.6,3.3-7.2,4.4c-5.3,2.2-11.3,2.5-16.8,0.9
		c-2.1-0.5-4.2-1.4-6.1-2.5c-1.8-1.1-3.6-2.4-5.1-3.8l8.9-6L84,96.7c-1.4,1.3-2.6,2.7-3.6,4.2c-0.4,0.5-0.6,1.1-0.8,1.7
		c-0.2,0.6-0.3,1.2-0.2,1.7c0.1,0.6,0.3,1.1,0.7,1.6C80.4,106.5,81,106.9,81.9,107.2L81.9,107.2z M63.6,73.8
		c0.1,0.1,0.1,0.1,0.2,0.1c0.1,0,0.2-0.1,0.2-0.2c-0.1,0-0.2,0-0.2,0L63.6,73.8z M64.2,83.1c0.1-0.1,0.2-0.3,0.2-0.5
		c-0.1-0.1-0.3-0.1-0.5,0c-0.3,0.1-0.3,0.3-0.2,0.5C63.8,83.2,64,83.2,64.2,83.1z M64.5,92.3c0.4-0.2,0.5-0.4,0.4-0.7
		c-0.2-0.2-0.4-0.2-0.8,0c-0.4,0.2-0.5,0.4-0.4,0.7C63.9,92.5,64.1,92.5,64.5,92.3L64.5,92.3z M64.3,100.5c-0.5,0.3-0.7,0.6-0.5,0.9
		c0.1,0.1,0.3,0.2,0.5,0.2c0.2,0,0.4,0,0.6-0.1c0.5-0.4,0.7-0.7,0.5-1C65.2,100.3,64.8,100.3,64.3,100.5L64.3,100.5z M64,72
		c-0.1,0-0.1,0.1-0.1,0.2c0.1,0.1,0.1,0.1,0.2,0c0,0,0.1,0,0.1-0.2C64.2,72,64.2,72,64,72L64,72z M64,81.3c0.1,0.1,0.3,0.1,0.4,0.1
		c0,0,0,0,0.1-0.1c0.2-0.1,0.3-0.2,0.2-0.4c-0.1-0.1-0.3-0.1-0.5,0C64,81.1,63.9,81.2,64,81.3L64,81.3z M65.2,99.8
		c0.5-0.3,0.6-0.6,0.5-0.9c-0.2-0.3-0.5-0.3-1,0c-0.6,0.3-0.7,0.5-0.5,0.8C64.2,100,64.6,100,65.2,99.8L65.2,99.8z M64.8,90.6
		c0.3-0.3,0.4-0.5,0.4-0.7c-0.2-0.2-0.4-0.2-0.8,0c-0.3,0.2-0.4,0.4-0.3,0.6C64.2,90.8,64.4,90.8,64.8,90.6L64.8,90.6z M64.5,79.3
		c-0.2,0.1-0.3,0.2-0.2,0.4c0.1,0.1,0.2,0.1,0.4,0c0.3-0.2,0.3-0.3,0.2-0.4C64.8,79.2,64.7,79.2,64.5,79.3L64.5,79.3z M65.1,88.8
		c0.3-0.2,0.4-0.4,0.3-0.6c-0.2-0.2-0.4-0.2-0.7,0s-0.4,0.4-0.3,0.6C64.5,89,64.7,89,65.1,88.8L65.1,88.8z M65.4,98
		c0.5-0.3,0.6-0.5,0.5-0.8c-0.2-0.3-0.5-0.3-1,0c-0.4,0.3-0.6,0.5-0.5,0.8C64.6,98.3,64.9,98.3,65.4,98z M64.8,77.6
		c-0.2,0.1-0.3,0.2-0.2,0.3c0.1,0.1,0.2,0.1,0.4,0c0.2-0.1,0.3-0.2,0.2-0.3C65.1,77.5,64.9,77.5,64.8,77.6L64.8,77.6z M65.3,87.1
		c0.3-0.1,0.4-0.3,0.3-0.5c-0.1-0.2-0.3-0.2-0.6,0c-0.3,0.2-0.4,0.3-0.3,0.5C64.8,87.3,65,87.3,65.3,87.1L65.3,87.1z M65.2,95.5
		c-0.4,0.3-0.6,0.5-0.5,0.8c0.2,0.3,0.5,0.3,0.9,0.1c0.2-0.1,0.3-0.2,0.5-0.4c0.1-0.2,0.1-0.3,0-0.4C65.9,95.3,65.6,95.3,65.2,95.5
		L65.2,95.5z M66,105.5c0.6-0.3,0.7-0.7,0.5-1.1c-0.2-0.4-0.6-0.4-1.2,0c-0.2,0.1-0.4,0.3-0.5,0.5c-0.1,0.2-0.1,0.4,0,0.6
		C65,105.9,65.4,105.9,66,105.5L66,105.5z M65.1,75.9c-0.2,0.1-0.2,0.2-0.2,0.3c0.1,0.1,0.2,0.1,0.3,0c0.2-0.1,0.3-0.2,0.2-0.3
		C65.3,75.9,65.2,75.9,65.1,75.9z M65.5,85.4c0.3-0.2,0.4-0.4,0.3-0.5c-0.1-0.2-0.3-0.2-0.6,0c-0.3,0.2-0.3,0.3-0.2,0.5
		C65.1,85.6,65.4,85.6,65.5,85.4C65.5,85.5,65.5,85.4,65.5,85.4z M65.6,102.8c-0.6,0.3-0.7,0.6-0.5,1c0.1,0.2,0.3,0.2,0.5,0.2
		c0.2,0,0.5-0.1,0.7-0.2c0.5-0.4,0.7-0.7,0.5-1.1C66.5,102.5,66.2,102.5,65.6,102.8z M65.4,74.3c-0.2,0.1-0.2,0.2-0.2,0.2
		c0.1,0.1,0.1,0.1,0.2,0c0.2-0.1,0.2-0.2,0.2-0.2C65.6,74.1,65.5,74.1,65.4,74.3z M65.8,83.7c0.3-0.1,0.3-0.3,0.2-0.5
		c-0.1-0.1-0.4-0.2-0.5,0c0,0,0,0,0,0c-0.3,0.2-0.3,0.3-0.2,0.5C65.4,83.9,65.6,83.9,65.8,83.7L65.8,83.7z M66.4,102.1
		c0.6-0.3,0.7-0.6,0.5-1c-0.2-0.3-0.6-0.3-1.1,0c-0.6,0.3-0.7,0.6-0.5,1C65.6,102.4,65.9,102.4,66.4,102.1L66.4,102.1z M65.6,72.6
		c-0.1,0.1-0.1,0.1-0.1,0.2h0.2c0.1-0.1,0.1-0.2,0.1-0.2C65.8,72.6,65.8,72.6,65.6,72.6z M66.1,82c0.2-0.2,0.3-0.3,0.2-0.5
		c-0.1-0.1-0.3-0.1-0.5,0c-0.3,0.1-0.3,0.3-0.2,0.5C65.7,82.1,65.9,82.1,66.1,82z M66.1,99.5c-0.5,0.3-0.6,0.6-0.5,0.9
		c0.1,0.3,0.5,0.3,1.1,0.1c0.5-0.4,0.6-0.7,0.5-1C67,99.2,66.6,99.2,66.1,99.5L66.1,99.5z M65.9,70.9c-0.2,0-0.2,0-0.1,0.2
		c0,0.1,0.1,0.1,0.2,0c0.2,0,0.2-0.1,0.1-0.2C66.1,70.8,66,70.8,65.9,70.9L65.9,70.9z M66.3,80.3c0.3-0.1,0.3-0.2,0.2-0.4
		c-0.1-0.1-0.3-0.1-0.5,0c-0.3,0.1-0.3,0.2-0.2,0.4C66,80.4,66.1,80.4,66.3,80.3L66.3,80.3z M66.6,78.6c0.2-0.1,0.3-0.2,0.2-0.4
		c0-0.1-0.1-0.1-0.4,0c-0.2,0.1-0.3,0.2-0.2,0.4C66.2,78.8,66.3,78.8,66.6,78.6L66.6,78.6z M66.8,76.8c0.2-0.1,0.3-0.2,0.2-0.3
		c0-0.1-0.1-0.1-0.3,0c-0.2,0.1-0.3,0.2-0.1,0.3C66.5,77,66.6,77,66.8,76.8L66.8,76.8z M67.8,104.5c0.2-0.1,0.4-0.3,0.6-0.5
		c0.1-0.2,0.1-0.4,0-0.6c-0.3-0.4-0.7-0.4-1.2,0c-0.2,0.1-0.4,0.3-0.6,0.5c-0.1,0.2-0.1,0.4,0,0.6C66.8,104.8,67.3,104.8,67.8,104.5
		L67.8,104.5z M67.1,75.2c0.1-0.1,0.1-0.2,0.1-0.3c-0.1-0.1-0.2-0.1-0.4,0c-0.2,0.2-0.2,0.3-0.1,0.3C66.8,75.3,66.9,75.3,67.1,75.2z
		 M67.4,101.8c-0.6,0.3-0.7,0.6-0.5,1c0.1,0.2,0.3,0.2,0.5,0.2c0.2,0,0.5-0.1,0.7-0.2c0.6-0.4,0.8-0.7,0.6-1.1
		C68.3,101.4,67.9,101.4,67.4,101.8L67.4,101.8z M67.4,73.4c0.1-0.1,0.2-0.2,0.2-0.2c0-0.1-0.2-0.1-0.3,0c-0.1,0.1-0.2,0.2-0.2,0.2
		C67.1,73.5,67.2,73.5,67.4,73.4C67.3,73.5,67.3,73.5,67.4,73.4L67.4,73.4z M67.5,71.6c-0.1,0.1-0.2,0.2-0.2,0.2h0.2
		c0.1,0,0.2-0.1,0.2-0.2C67.6,71.5,67.6,71.5,67.5,71.6L67.5,71.6z M68,81c0.1-0.1,0.2-0.3,0.2-0.5c-0.1-0.1-0.3-0.1-0.5,0
		c-0.2,0.2-0.3,0.4-0.2,0.5C67.5,81.1,67.7,81.1,68,81L68,81z M67.7,69.9c0,0-0.1,0.1-0.1,0.2c0.1,0.1,0.1,0.1,0.2,0
		c0,0,0.1,0,0.1-0.2C68,69.7,67.9,69.7,67.7,69.9L67.7,69.9z M68.2,79.2c0.2-0.1,0.3-0.2,0.2-0.4c-0.1-0.1-0.3-0.1-0.5,0
		c-0.3,0.2-0.3,0.3-0.2,0.4C67.8,79.4,68,79.4,68.2,79.2z M68.6,77.2c-0.1-0.1-0.2-0.1-0.4,0c-0.3,0.1-0.3,0.2-0.2,0.4
		c0.1,0.1,0.2,0.1,0.4,0C68.6,77.5,68.7,77.3,68.6,77.2L68.6,77.2z M68.5,75.5c-0.2,0.1-0.3,0.2-0.2,0.3c0.1,0.1,0.3,0.1,0.4,0
		c0.2-0.1,0.3-0.2,0.2-0.3C68.8,75.4,68.6,75.4,68.5,75.5z M68.8,73.8c-0.2,0.1-0.3,0.2-0.2,0.3c0.1,0.1,0.2,0.1,0.3,0
		c0.2-0.1,0.3-0.2,0.1-0.3C69,73.8,68.9,73.8,68.8,73.8L68.8,73.8z M69.1,72.1c-0.1,0.1-0.2,0.2-0.1,0.2c0,0.2,0.1,0.2,0.2,0
		c0.2-0.1,0.2-0.2,0.2-0.2C69.3,72,69.3,72,69.1,72.1L69.1,72.1z M69.3,70.5c-0.1,0.1-0.1,0.2-0.1,0.2h0.2c0.1-0.1,0.1-0.2,0.1-0.2
		C69.6,70.3,69.5,70.3,69.3,70.5L69.3,70.5z M69.8,79.9c0.2-0.2,0.3-0.3,0.2-0.5c-0.1-0.1-0.3-0.1-0.5,0c-0.3,0.2-0.3,0.3-0.2,0.5
		C69.4,80,69.5,80,69.8,79.9L69.8,79.9z M69.6,68.8c-0.1,0.1-0.1,0.2-0.1,0.2c0,0.1,0,0.1,0.2,0c0.2,0,0.2-0.1,0.1-0.2
		C69.8,68.7,69.7,68.7,69.6,68.8L69.6,68.8z M70,78.1c0.3-0.1,0.3-0.2,0.2-0.4c-0.1-0.1-0.3-0.1-0.5,0c-0.3,0.1-0.3,0.2-0.2,0.4
		C69.7,78.3,69.9,78.3,70,78.1L70,78.1z M70.1,76.1c-0.2,0.1-0.3,0.2-0.2,0.4c0,0.2,0.1,0.2,0.4,0c0.2-0.1,0.3-0.2,0.2-0.4
		C70.4,76,70.2,76,70.1,76.1L70.1,76.1z M70.4,74.4c-0.2,0.1-0.3,0.2-0.2,0.3c0,0.1,0.1,0.1,0.3,0c0.2-0.1,0.3-0.2,0.2-0.3
		C70.7,74.3,70.6,74.3,70.4,74.4L70.4,74.4z M70.6,72.8c-0.1,0.1-0.1,0.2-0.2,0.3c0.1,0.1,0.3,0.1,0.4,0c0.1-0.1,0.1-0.2,0.1-0.3
		C70.9,72.7,70.8,72.7,70.6,72.8L70.6,72.8z M70.9,71.1c-0.1,0.1-0.1,0.2-0.1,0.2c0,0.1,0.1,0.1,0.3,0c0.1,0,0.2-0.1,0.2-0.2
		C71.2,71,71.1,71,70.9,71.1L70.9,71.1z M71.2,69.4c-0.1,0.1-0.2,0.2-0.2,0.2h0.2c0.1,0,0.2-0.1,0.2-0.2
		C71.3,69.4,71.3,69.4,71.2,69.4L71.2,69.4z M71.5,67.7c0,0-0.1,0.1-0.1,0.2c0,0.1,0.1,0.1,0.2,0c0.1,0,0.1,0,0.1-0.2
		C71.7,67.7,71.5,67.7,71.5,67.7z M71.9,77.1c0.2-0.1,0.3-0.2,0.2-0.4c-0.1-0.1-0.3-0.1-0.5,0c-0.2,0.2-0.3,0.3-0.2,0.4
		C71.5,77.3,71.7,77.3,71.9,77.1L71.9,77.1z M72,75c-0.3,0.1-0.3,0.2-0.2,0.4c0.1,0.1,0.2,0.1,0.4,0c0.2-0.1,0.3-0.2,0.2-0.4
		C72.3,74.9,72.1,74.9,72,75L72,75z M72.2,73.4c-0.2,0.1-0.3,0.2-0.2,0.3c0.1,0.1,0.2,0.1,0.4,0c0.1-0.1,0.2-0.2,0.2-0.3
		C72.5,73.3,72.3,73.3,72.2,73.4L72.2,73.4z M72.5,71.7c-0.2,0.1-0.3,0.2-0.2,0.3c0.1,0.1,0.2,0.1,0.3,0c0.2-0.1,0.3-0.2,0.2-0.3
		C72.8,71.6,72.7,71.6,72.5,71.7L72.5,71.7z M72.8,70c-0.2,0.1-0.2,0.2-0.2,0.2c0,0.2,0.1,0.2,0.2,0c0.3,0,0.3-0.1,0.2-0.2
		C73,69.9,73,69.9,72.8,70z M73,68.4c-0.1,0.1-0.1,0.2-0.1,0.2c0,0.2,0.1,0.2,0.2,0c0.1-0.1,0.1-0.2,0.1-0.2H73z M73.3,66.7
		c-0.1,0.1-0.1,0.2-0.1,0.2c0,0.1,0,0.1,0.2,0c0.2,0,0.2-0.1,0.1-0.2H73.3z M73.7,76.1c0.2-0.2,0.3-0.3,0.2-0.5
		c-0.1-0.1-0.3-0.1-0.5,0c-0.2,0.2-0.3,0.3-0.2,0.4C73.3,76.2,73.5,76.2,73.7,76.1z M73.8,74c-0.2,0.1-0.3,0.2-0.2,0.4
		c0,0.2,0.1,0.2,0.4,0c0.2-0.1,0.3-0.2,0.2-0.4C74.1,73.9,74,73.9,73.8,74z M74.1,72.3c-0.2,0.1-0.3,0.2-0.2,0.3
		c0,0.2,0.1,0.2,0.3,0c0.2-0.1,0.2-0.2,0.2-0.3C74.4,72.2,74.3,72.2,74.1,72.3z M74.3,70.6c-0.1,0.1-0.1,0.2-0.2,0.3
		c0.1,0.1,0.2,0.1,0.3,0c0,0,0,0,0,0c0.2-0.1,0.3-0.2,0.2-0.3C74.6,70.5,74.5,70.5,74.3,70.6z M74.6,69c-0.1,0.1-0.2,0.2-0.2,0.2
		c0.1,0.1,0.2,0.1,0.3,0c0.1,0,0.2-0.1,0.2-0.2C74.9,68.9,74.8,68.9,74.6,69C74.7,68.9,74.6,69,74.6,69L74.6,69z M74.9,67.3
		c-0.1,0.1-0.2,0.2-0.2,0.2c0.1,0.1,0.1,0.1,0.2,0c0.1-0.1,0.2-0.2,0.2-0.2H74.9z M75.2,65.6c0,0-0.1,0.1-0.1,0.2
		c0,0.1,0.1,0.1,0.2,0c0.1,0,0.1,0,0.1-0.2H75.2z M75.6,75c0.1-0.1,0.2-0.2,0.2-0.4c-0.1-0.2-0.3-0.2-0.5-0.1
		c-0.2,0.2-0.3,0.3-0.2,0.4C75.3,75.1,75.4,75.1,75.6,75L75.6,75z M75.7,72.9c-0.3,0.2-0.3,0.3-0.2,0.4c0.1,0.1,0.2,0.1,0.4,0
		c0.1,0,0.2-0.2,0.2-0.3C76,72.8,75.9,72.8,75.7,72.9L75.7,72.9z M75.9,71.2c-0.2,0.1-0.3,0.2-0.2,0.3c0.1,0.2,0.2,0.2,0.4,0.1
		c0.1-0.1,0.1-0.2,0.2-0.4C76.2,71.1,76.1,71.1,75.9,71.2L75.9,71.2z M76.2,69.6c-0.2,0.1-0.3,0.2-0.1,0.3c0,0.1,0.1,0.1,0.3,0
		c0.1-0.1,0.2-0.2,0.2-0.3C76.5,69.5,76.3,69.5,76.2,69.6C76.2,69.5,76.2,69.6,76.2,69.6L76.2,69.6z M76.5,67.9
		c-0.2,0.1-0.2,0.2-0.2,0.2c0,0.1,0.1,0.1,0.2,0.1c0.2-0.1,0.3-0.2,0.2-0.3H76.5z M76.8,66.2c-0.1,0.1-0.1,0.2-0.1,0.2
		c0,0.2,0.1,0.2,0.2,0c0.1-0.1,0.1-0.2,0.1-0.2H76.8z M77.2,73.5c-0.2,0.2-0.3,0.3-0.1,0.4c0,0.2,0.1,0.2,0.4,0.1
		c0.3-0.2,0.3-0.3,0.2-0.4C77.6,73.4,77.5,73.4,77.2,73.5L77.2,73.5z M77.5,71.8c-0.2,0.2-0.3,0.3-0.2,0.4c0,0.2,0.1,0.2,0.4,0
		c0.2-0.1,0.3-0.2,0.2-0.3C77.9,71.8,77.7,71.7,77.5,71.8z M77.8,70.2c-0.2,0.1-0.2,0.2-0.2,0.3c0.1,0.2,0.2,0.2,0.4,0.1
		c0.2-0.1,0.3-0.2,0.2-0.3C78.1,70.1,78,70.1,77.8,70.2z M78.1,68.5c-0.1,0.1-0.1,0.2-0.1,0.3c0.1,0.1,0.2,0.1,0.3,0c0,0,0,0,0,0
		c0.2-0.1,0.2-0.2,0.2-0.2C78.4,68.4,78.3,68.4,78.1,68.5L78.1,68.5z M78.4,66.8c0,0-0.1,0.1-0.1,0.2c0,0,0,0.1-0.1,0.1c0,0,0,0,0,0
		c0.1,0.1,0.2,0.1,0.3,0.1c0.1-0.1,0.1-0.2,0.1-0.3H78.4z M78.6,65.2c-0.1,0-0.2,0.1-0.1,0.2c0,0.1,0.1,0.1,0.2,0
		c0.1-0.1,0.2-0.2,0.2-0.2H78.6z M79,74.6c0.3-0.1,0.4-0.2,0.2-0.4c0-0.2-0.2-0.2-0.5-0.1c-0.2,0.2-0.3,0.4-0.2,0.5
		C78.7,74.8,78.8,74.8,79,74.6L79,74.6z M79.1,72.5c-0.3,0.2-0.3,0.3-0.2,0.4c0,0.2,0.2,0.2,0.5,0.1c0.2-0.2,0.2-0.3,0.2-0.4
		C79.5,72.4,79.4,72.4,79.1,72.5L79.1,72.5z M79.3,70.8c-0.2,0.2-0.3,0.3-0.2,0.4c0.1,0.1,0.2,0.1,0.4,0c0.1,0,0.2-0.2,0.2-0.3
		C79.7,70.7,79.6,70.7,79.3,70.8L79.3,70.8z M79.6,69.1c-0.2,0.1-0.3,0.2-0.2,0.3c0,0.2,0.2,0.2,0.4,0.1c0.1-0.1,0.2-0.2,0.2-0.3
		C80,69,79.8,69,79.6,69.1L79.6,69.1z M79.9,67.4c-0.2,0.1-0.3,0.2-0.2,0.3c0,0.1,0.1,0.1,0.3,0c0.1,0,0.2-0.1,0.2-0.2
		C80.1,67.4,80,67.4,79.9,67.4L79.9,67.4z M80.2,65.8C80,65.9,80,66,80.1,66c0,0.1,0.1,0.1,0.2,0.1c0.1,0,0.1,0,0.1-0.1c0,0,0,0,0,0
		v-0.1C80.4,65.8,80.3,65.8,80.2,65.8L80.2,65.8z M80.7,73.1c-0.3,0.2-0.3,0.3-0.2,0.5c0.1,0.2,0.2,0.2,0.5,0
		c0.3-0.2,0.3-0.3,0.2-0.4C81.1,73,80.9,73,80.7,73.1L80.7,73.1z M80.9,71.4c-0.1,0.1-0.2,0.3-0.2,0.5c0,0.2,0.1,0.2,0.4,0
		c0.3-0.2,0.3-0.3,0.2-0.4C81.3,71.3,81.2,71.3,80.9,71.4L80.9,71.4z M81.2,69.7C81.1,69.8,81,70,81,70.1c0.1,0.1,0.3,0.1,0.5,0
		c0.2-0.1,0.3-0.2,0.2-0.3C81.6,69.6,81.4,69.6,81.2,69.7L81.2,69.7z M81.5,68.1c-0.1,0.1-0.2,0.2-0.2,0.4c0.1,0.1,0.2,0.1,0.4,0
		c0.2-0.1,0.3-0.2,0.2-0.3c0-0.1,0-0.2-0.1-0.2C81.7,68,81.6,68,81.5,68.1z M81.8,66.4c-0.1,0.1-0.1,0.2-0.2,0.3
		c0.1,0.1,0.2,0.1,0.3,0c0,0,0,0,0,0c0.2-0.1,0.2-0.2,0.2-0.2C82.1,66.4,82,66.4,81.8,66.4L81.8,66.4z M82.1,64.7
		c-0.1,0.1-0.1,0.2-0.2,0.3h0.3c0.2-0.2,0.2-0.2,0.1-0.2C82.3,64.7,82.2,64.7,82.1,64.7L82.1,64.7z M82.5,74.2
		c0.2-0.2,0.3-0.3,0.2-0.5c-0.1-0.2-0.3-0.2-0.5,0C82,73.8,81.9,74,82,74.2C82.1,74.3,82.3,74.3,82.5,74.2z M82.5,72.1
		c-0.2,0.1-0.3,0.2-0.2,0.4c0.1,0.2,0.3,0.2,0.5,0c0.3-0.1,0.4-0.2,0.2-0.4C82.9,71.9,82.7,71.9,82.5,72.1z M82.8,70.4
		c-0.3,0.1-0.3,0.2-0.2,0.4c0,0.1,0.2,0.1,0.5,0c0.2-0.2,0.2-0.3,0.2-0.4C83.2,70.2,83.1,70.2,82.8,70.4z M83.1,68.7
		c-0.2,0.1-0.3,0.2-0.2,0.3c0.1,0.1,0.2,0.1,0.4,0c0.1,0,0.2-0.2,0.2-0.3C83.4,68.6,83.3,68.6,83.1,68.7L83.1,68.7z M83.4,67.1
		c-0.2,0.1-0.2,0.2-0.2,0.3c0.1,0.1,0.2,0.1,0.3,0c0,0,0,0,0,0c0.1,0,0.2-0.2,0.2-0.3C83.6,67,83.5,67,83.4,67.1L83.4,67.1z
		 M83.7,65.4c-0.3,0-0.3,0.1-0.2,0.2c0,0.1,0.1,0.1,0.3,0c0.1,0,0.2-0.1,0.2-0.2C83.9,65.3,83.8,65.3,83.7,65.4
		C83.7,65.4,83.7,65.4,83.7,65.4L83.7,65.4z M84.1,74.8c0.3-0.1,0.4-0.3,0.3-0.5s-0.3-0.2-0.6,0c-0.3,0.1-0.3,0.3-0.2,0.5
		C83.7,75,83.9,75,84.1,74.8L84.1,74.8z M84.1,72.7c-0.3,0.1-0.3,0.3-0.2,0.5c0.1,0.1,0.3,0.1,0.4,0.1c0,0,0,0,0.1-0.1
		c0.3-0.2,0.4-0.3,0.3-0.5C84.5,72.5,84.4,72.5,84.1,72.7L84.1,72.7z M84.4,71c-0.3,0.1-0.4,0.2-0.2,0.4c0,0.2,0.2,0.2,0.5,0
		c0.3-0.2,0.3-0.3,0.2-0.4C84.8,70.8,84.6,70.8,84.4,71L84.4,71z M84.6,69.3c-0.2,0.1-0.3,0.2-0.2,0.4c0,0.2,0.1,0.2,0.4,0
		c0.3-0.1,0.4-0.2,0.2-0.4C85,69.2,84.9,69.2,84.6,69.3L84.6,69.3z M85,67.7c-0.2,0.1-0.2,0.2-0.2,0.3c0.1,0.1,0.3,0.1,0.5,0
		c0.2-0.1,0.3-0.2,0.2-0.3C85.2,67.5,85.1,67.5,85,67.7L85,67.7z M85.3,66c-0.2,0.1-0.2,0.2-0.2,0.3c0.1,0.1,0.2,0.1,0.4,0
		c0.2-0.1,0.3-0.2,0.2-0.3C85.5,65.9,85.4,65.9,85.3,66C85.3,66,85.3,66,85.3,66L85.3,66z M86.3,73.3c-0.1-0.2-0.3-0.2-0.5,0
		c-0.3,0.1-0.4,0.3-0.3,0.5c0.1,0.2,0.3,0.2,0.6,0.1C86.3,73.7,86.3,73.5,86.3,73.3z M86,71.6c-0.3,0.1-0.3,0.3-0.2,0.5
		c0.1,0.1,0.4,0.2,0.5,0c0,0,0,0,0,0c0.2-0.2,0.3-0.3,0.2-0.5C86.4,71.5,86.2,71.5,86,71.6L86,71.6z M86.3,70
		c-0.3,0.1-0.4,0.2-0.2,0.4c0.1,0.2,0.3,0.2,0.5,0c0.3-0.1,0.3-0.2,0.2-0.4C86.6,69.8,86.4,69.8,86.3,70z M86.5,68.3
		c-0.3,0.1-0.3,0.2-0.2,0.4c0,0.1,0.2,0.1,0.5,0c0.3-0.1,0.3-0.2,0.2-0.4C86.9,68,86.8,68,86.5,68.3z M86.8,66.6
		c-0.2,0.1-0.3,0.2-0.2,0.3c0.1,0.2,0.2,0.2,0.4,0c0.1,0,0.2-0.2,0.2-0.3C87.1,66.5,86.9,66.5,86.8,66.6
		C86.8,66.6,86.8,66.6,86.8,66.6L86.8,66.6z M87.6,74.4c0.3-0.2,0.4-0.4,0.3-0.5c-0.2-0.2-0.4-0.2-0.7,0c-0.3,0.2-0.4,0.4-0.2,0.5
		C87.1,74.6,87.3,74.6,87.6,74.4L87.6,74.4z M87.5,72.2c-0.3,0.1-0.3,0.3-0.2,0.5c0,0.2,0.2,0.2,0.5,0.1c0.3-0.2,0.4-0.4,0.3-0.5
		C88,72,87.8,72,87.5,72.2L87.5,72.2z M87.8,70.6c-0.3,0.1-0.3,0.3-0.2,0.5c0.1,0.2,0.3,0.2,0.5,0c0.3-0.2,0.4-0.3,0.3-0.5
		C88.3,70.4,88.1,70.4,87.8,70.6L87.8,70.6z M88.1,68.9c-0.3,0.1-0.3,0.2-0.2,0.4c0,0.2,0.2,0.2,0.5,0c0.2-0.1,0.3-0.2,0.2-0.4
		C88.5,68.7,88.3,68.7,88.1,68.9L88.1,68.9z M88.4,67.2c-0.1,0.1-0.2,0.2-0.2,0.4c0.1,0.1,0.3,0.1,0.5,0c0.3-0.2,0.3-0.3,0.2-0.4
		C88.7,67,88.6,67,88.4,67.2L88.4,67.2z M89.2,75.1c0.3-0.2,0.4-0.4,0.3-0.6c-0.1-0.2-0.3-0.2-0.7,0c-0.3,0.2-0.4,0.4-0.3,0.5
		C88.6,75.3,88.9,75.3,89.2,75.1L89.2,75.1z M89.1,72.8c-0.3,0.2-0.4,0.4-0.3,0.5c0.1,0.2,0.3,0.2,0.6,0c0.3-0.2,0.4-0.4,0.3-0.5
		C89.6,72.6,89.4,72.6,89.1,72.8L89.1,72.8z M89.4,71.2c-0.3,0.1-0.4,0.3-0.3,0.5c0,0.2,0.3,0.2,0.6,0.1c0.3-0.2,0.3-0.3,0.2-0.5
		C89.9,71,89.7,71,89.4,71.2L89.4,71.2z M89.7,69.5c-0.3,0.1-0.3,0.3-0.2,0.5c0.1,0.2,0.3,0.2,0.5,0c0.2-0.2,0.3-0.3,0.2-0.5
		C90.1,69.3,89.9,69.3,89.7,69.5L89.7,69.5z M90,67.8c-0.3,0.1-0.4,0.2-0.2,0.4c0.1,0.2,0.3,0.2,0.5,0.1c0.2-0.2,0.3-0.3,0.2-0.5
		C90.3,67.7,90.2,67.7,90,67.8z M90.8,75.7c0.4-0.2,0.5-0.4,0.3-0.6c-0.1-0.2-0.3-0.2-0.7,0c-0.4,0.2-0.5,0.4-0.3,0.6
		C90.2,75.9,90.4,75.9,90.8,75.7L90.8,75.7z M90.7,73.4c-0.4,0.2-0.5,0.4-0.3,0.5c0.1,0.3,0.3,0.3,0.6,0.1c0.4-0.2,0.5-0.4,0.3-0.6
		C91.2,73.2,91,73.2,90.7,73.4L90.7,73.4z M91,71.8c-0.3,0.2-0.4,0.4-0.2,0.5c0.1,0.2,0.3,0.2,0.6,0c0.3-0.2,0.4-0.4,0.2-0.5
		C91.5,71.6,91.3,71.6,91,71.8L91,71.8z M91.3,70.1c-0.3,0.2-0.3,0.4-0.2,0.5c0,0.2,0.2,0.2,0.5,0.1c0.3-0.2,0.4-0.4,0.3-0.5
		C91.7,70,91.5,70,91.3,70.1L91.3,70.1z M91.6,68.4c-0.3,0.1-0.4,0.3-0.3,0.5c0,0.1,0.1,0.2,0.2,0.2c0.1,0,0.2-0.1,0.3-0.2
		c0.3-0.1,0.4-0.3,0.3-0.5C92,68.3,91.8,68.3,91.6,68.4L91.6,68.4z M92.2,78.1c0.4-0.2,0.5-0.4,0.4-0.7c-0.2-0.3-0.5-0.3-0.8,0
		c-0.4,0.2-0.5,0.4-0.4,0.7C91.5,78.3,91.8,78.3,92.2,78.1L92.2,78.1z M92.4,76.4c0.4-0.2,0.5-0.4,0.4-0.7c-0.2-0.2-0.5-0.2-0.8,0
		c-0.4,0.2-0.5,0.4-0.4,0.7C91.7,76.6,92,76.6,92.4,76.4L92.4,76.4z M92.3,74c-0.3,0.2-0.4,0.4-0.3,0.6c0.1,0.1,0.2,0.2,0.3,0.2
		c0.1,0,0.3-0.1,0.4-0.2c0.4-0.2,0.5-0.4,0.4-0.6C92.8,73.9,92.6,73.9,92.3,74L92.3,74z M92.6,72.4c-0.3,0.2-0.4,0.4-0.3,0.5
		c0.1,0.3,0.3,0.3,0.7,0.1c0.3-0.2,0.4-0.4,0.3-0.6C93.1,72.2,92.9,72.2,92.6,72.4L92.6,72.4z M92.8,70.7c-0.3,0.2-0.4,0.4-0.3,0.5
		c0.1,0.2,0.3,0.2,0.6,0c0.3-0.2,0.4-0.4,0.3-0.5C93.4,70.5,93.2,70.5,92.8,70.7L92.8,70.7z M93.2,69c-0.3,0.2-0.4,0.4-0.3,0.5
		c0.1,0.2,0.2,0.2,0.5,0.1c0.3-0.2,0.4-0.3,0.3-0.5C93.6,68.9,93.4,68.9,93.2,69L93.2,69z M93.8,78.8c0.4-0.3,0.5-0.6,0.4-0.8
		c-0.2-0.3-0.5-0.3-0.8,0c-0.5,0.2-0.6,0.5-0.4,0.8C93,79.1,93.3,79.1,93.8,78.8L93.8,78.8z M94,77.1c0.4-0.3,0.5-0.6,0.4-0.8
		c-0.2-0.3-0.4-0.3-0.8,0c-0.5,0.2-0.6,0.4-0.4,0.7C93.3,77.3,93.6,77.3,94,77.1L94,77.1z M93.8,74.7c-0.4,0.2-0.5,0.4-0.4,0.7
		c0.2,0.2,0.4,0.2,0.8,0c0.4-0.2,0.5-0.4,0.3-0.7C94.4,74.4,94.2,74.4,93.8,74.7L93.8,74.7z M94.1,73c-0.4,0.2-0.5,0.4-0.3,0.6
		c0.1,0.3,0.3,0.3,0.7,0c0.4-0.2,0.5-0.4,0.3-0.6C94.7,72.8,94.5,72.8,94.1,73L94.1,73z M94.4,71.3c-0.4,0.2-0.5,0.4-0.4,0.6
		c0.2,0.2,0.5,0.2,0.6,0c0,0,0,0,0,0c0.4-0.2,0.5-0.4,0.3-0.6C94.9,71.1,94.7,71.1,94.4,71.3L94.4,71.3z M94.7,69.6
		c-0.3,0.2-0.4,0.4-0.3,0.5c0.2,0.2,0.4,0.2,0.7,0c0.3-0.2,0.4-0.4,0.2-0.5C95.2,69.5,95,69.5,94.7,69.6L94.7,69.6z M95.3,79.4
		c0.4-0.3,0.6-0.5,0.5-0.8c-0.2-0.3-0.5-0.3-0.9,0c-0.5,0.3-0.6,0.5-0.5,0.8C94.6,79.7,94.9,79.7,95.3,79.4L95.3,79.4z M95.1,76.9
		c-0.2,0.1-0.3,0.2-0.4,0.4c-0.1,0.2-0.1,0.3,0,0.4c0.2,0.3,0.5,0.3,0.8,0c0.4-0.2,0.6-0.4,0.5-0.8C95.9,76.7,95.6,76.7,95.1,76.9
		L95.1,76.9z M95.4,75.3c-0.4,0.2-0.5,0.4-0.4,0.7c0.2,0.2,0.4,0.2,0.8,0.1c0.4-0.3,0.5-0.5,0.4-0.8C96.1,75,95.7,75,95.4,75.3
		C95.5,75.2,95.4,75.2,95.4,75.3L95.4,75.3z M95.7,73.6c-0.4,0.2-0.5,0.4-0.4,0.7c0.1,0.2,0.4,0.2,0.8,0c0.4-0.2,0.5-0.4,0.4-0.7
		C96.3,73.4,96.1,73.4,95.7,73.6L95.7,73.6z M96,71.9c-0.3,0.2-0.4,0.4-0.3,0.6c0.1,0.1,0.2,0.2,0.3,0.2c0.1,0,0.3-0.1,0.4-0.2
		c0.4-0.2,0.5-0.4,0.4-0.6C96.6,71.8,96.3,71.8,96,71.9L96,71.9z M96.7,81.8c0.5-0.3,0.6-0.6,0.5-0.9c-0.2-0.3-0.5-0.3-1,0
		c-0.5,0.3-0.6,0.5-0.5,0.8C95.8,82,96.2,82,96.7,81.8z M96.9,80c0.2-0.1,0.3-0.2,0.5-0.4c0.1-0.2,0.1-0.3,0-0.4
		c-0.2-0.3-0.5-0.3-1,0C96,79.5,95.8,79.7,96,80C96.2,80.3,96.5,80.3,96.9,80L96.9,80z M96.3,70.3c-0.3,0.2-0.4,0.4-0.3,0.6
		c0.1,0.2,0.3,0.2,0.7,0c0.3-0.2,0.4-0.4,0.3-0.6C96.9,70.1,96.6,70.1,96.3,70.3z M97.2,78.4c0.2-0.1,0.3-0.2,0.5-0.4
		c0.1-0.2,0.1-0.3,0-0.4c-0.2-0.3-0.5-0.3-0.9,0c-0.4,0.3-0.6,0.5-0.5,0.8C96.5,78.7,96.8,78.7,97.2,78.4L97.2,78.4z M97,75.9
		c-0.5,0.2-0.6,0.5-0.4,0.8c0.1,0.3,0.4,0.3,0.8,0c0.1-0.1,0.3-0.2,0.4-0.4c0.1-0.1,0.1-0.3,0-0.4C97.7,75.6,97.4,75.6,97,75.9
		L97,75.9z M97.3,74.2c-0.5,0.2-0.6,0.4-0.4,0.7c0.1,0.3,0.4,0.3,0.8,0.1c0.4-0.3,0.5-0.6,0.4-0.8C97.9,73.9,97.7,73.9,97.3,74.2
		L97.3,74.2z M97.6,72.5c-0.4,0.2-0.5,0.4-0.4,0.7c0.2,0.2,0.4,0.2,0.8,0c0.5-0.2,0.6-0.4,0.4-0.7C98.2,72.3,98,72.3,97.6,72.5
		L97.6,72.5z M97.9,70.9c-0.4,0.2-0.5,0.4-0.3,0.6c0.1,0.3,0.3,0.3,0.7,0.1c0.4-0.3,0.5-0.5,0.3-0.7C98.4,70.7,98.2,70.7,97.9,70.9
		L97.9,70.9z M98.5,80.7c0.5-0.3,0.7-0.6,0.5-0.9c-0.1-0.3-0.4-0.3-1,0c-0.2,0.1-0.3,0.2-0.5,0.4c-0.1,0.2-0.1,0.3,0,0.4
		c0.1,0.1,0.2,0.2,0.4,0.2C98.2,80.9,98.4,80.8,98.5,80.7L98.5,80.7z M98.8,79c0.5-0.3,0.6-0.5,0.5-0.8C99.2,78,99.1,78,98.9,78
		c-0.2,0-0.4,0.1-0.6,0.2c-0.2,0.1-0.3,0.2-0.5,0.4c-0.1,0.2-0.1,0.3,0,0.4C98,79.2,98.3,79.2,98.8,79L98.8,79z M99.1,77.3
		c0.4-0.3,0.6-0.5,0.5-0.8c-0.2-0.3-0.5-0.3-0.9,0c-0.5,0.3-0.6,0.5-0.5,0.8C98.4,77.5,98.7,77.6,99.1,77.3L99.1,77.3z M98.8,74.8
		c-0.4,0.3-0.5,0.6-0.4,0.8c0.2,0.3,0.5,0.3,0.8,0c0.4-0.2,0.6-0.4,0.5-0.8C99.5,74.6,99.1,74.6,98.8,74.8L98.8,74.8z M99.2,73.1
		c-0.1,0.1-0.3,0.2-0.4,0.3c-0.1,0.1-0.1,0.2,0,0.3c0,0,0,0,0,0c0.1,0.2,0.4,0.2,0.8,0.1c0.4-0.3,0.5-0.5,0.4-0.8
		C99.8,72.9,99.5,72.9,99.2,73.1L99.2,73.1z M100.7,77.9c0.5-0.2,0.7-0.5,0.5-0.8c-0.2-0.3-0.5-0.3-1,0c-0.4,0.3-0.6,0.5-0.5,0.8
		C99.9,78.2,100.2,78.2,100.7,77.9L100.7,77.9z M100.4,75.4c-0.4,0.3-0.6,0.5-0.5,0.8c0.2,0.3,0.5,0.3,0.9,0.1
		c0.2-0.1,0.3-0.2,0.5-0.4c0.1-0.2,0.1-0.3,0-0.4C101.2,75.2,100.9,75.2,100.4,75.4L100.4,75.4z M102,76c-0.2,0.1-0.4,0.2-0.5,0.4
		c-0.1,0.2-0.1,0.3,0,0.4c0.2,0.3,0.5,0.3,0.9,0.1c0.5-0.3,0.7-0.6,0.5-0.9c-0.1-0.1-0.2-0.2-0.3-0.2C102.4,75.9,102.2,75.9,102,76
		L102,76z"/>
	<path class="st1" d="M96.1,107.2c-0.1,0.1-0.2,0.2-0.2,0.4h-0.2L96.1,107.2z M100.3,104c0.3,0.2,0.7,0.1,1.2-0.2
		c0.5-0.3,0.7-0.6,0.7-1c0.3,0.2,0.7,0.1,1.2-0.2c0.5-0.3,0.7-0.6,0.7-1c0.2,0.1,0.5,0.1,0.7,0l-0.2,0.2c-0.1,0.1-0.2,0.2-0.2,0.2
		c-0.1,0.1-0.3,0.2-0.4,0.3l-1,0.6c-0.1,0-0.2,0.1-0.3,0.1c-0.1,0-0.2,0.1-0.3,0.1c-0.1,0.1-0.2,0.2-0.3,0.3l-0.3,0.3l-0.5,0.4
		c-0.3,0-0.6,0.1-0.8,0.3c-0.3,0.1-0.5,0.3-0.7,0.6l-0.3,0.2c-0.3,0-0.7,0.1-0.9,0.3c-0.3,0.2-0.6,0.4-0.8,0.8l-0.2,0.2
		c-0.3-0.1-0.7,0-1,0.2c0,0-0.1,0-0.1,0c0,0-0.1,0-0.1,0c0.1,0,0.1-0.1,0.2-0.2c0-0.1,0.1-0.1,0.2-0.2c0.3,0,0.6-0.2,0.8-0.3
		c0.2-0.1,0.4-0.2,0.5-0.5c0.1-0.2,0.1-0.3,0.2-0.5c0.3,0.2,0.7,0.2,1.2-0.2C100,104.7,100.3,104.4,100.3,104z M102.8,67.8v-2.5
		h10.3l0.5,0.6h-0.1c-0.1,0.1-0.2,0.2-0.2,0.4c0,0.1,0.2,0.1,0.5,0v-0.1l1.3,1.9c-0.1,0-0.2,0-0.2,0.1c-0.3,0.1-0.4,0.2-0.2,0.4
		c0.1,0.2,0.3,0.2,0.5,0c0.1,0,0.1,0,0.2-0.1l1.2,1.8c-0.1,0-0.2,0-0.2,0.1c-0.3,0.2-0.4,0.4-0.3,0.5c0.1,0.2,0.3,0.2,0.6,0l0.2-0.2
		l1.2,1.8c-0.1,0-0.3,0.1-0.4,0.2c-0.4,0.2-0.5,0.4-0.4,0.6c0.2,0.2,0.5,0.2,0.6,0c0,0,0,0,0,0c0.2-0.2,0.3-0.3,0.3-0.4l1.3,1.8
		c-0.2,0-0.4,0.1-0.6,0.2c-0.4,0.3-0.5,0.5-0.3,0.7c0.1,0.3,0.4,0.3,0.8,0c0.2-0.1,0.3-0.2,0.4-0.4l0.5,0.7c-0.1,0.1-0.1,0.2,0,0.3
		c0,0,0,0,0,0c0.1,0.1,0.2,0.1,0.3,0.2l0.5,0.7c-0.2-0.1-0.4-0.1-0.7,0.2c-0.4,0.3-0.5,0.6-0.4,0.8c0.2,0.3,0.5,0.3,0.9,0
		c0.2-0.1,0.4-0.3,0.4-0.5l0.5,0.5c-0.1,0.2-0.2,0.4-0.2,0.6c0.1,0.2,0.3,0.3,0.6,0.2l0.4,0.6c-0.2-0.2-0.5-0.1-0.8,0.1
		c-0.2,0.1-0.4,0.3-0.5,0.5c-0.1,0.2-0.1,0.4,0,0.5c0.2,0.3,0.5,0.3,1,0c0.4-0.3,0.5-0.5,0.5-0.7L123,80c-0.3,0.1-0.4,0.5-0.3,0.8
		c0.2,0.2,0.6,0.2,0.8,0.1l0.4,0.5c-0.3-0.2-0.6-0.1-1,0.2c-0.2,0.1-0.4,0.2-0.5,0.5c-0.1,0.2-0.1,0.4,0,0.5c0.1,0.4,0.5,0.4,1.1,0
		c0.2-0.1,0.4-0.3,0.5-0.5c0.1-0.2,0.1-0.4,0-0.5c0.1,0.1,0.2,0.2,0.3,0.3c0.1,0.1,0.2,0.2,0.3,0.3c-0.2,0.1-0.4,0.3-0.5,0.5
		c-0.1,0.2-0.1,0.4,0,0.5c0.1,0.2,0.3,0.2,0.5,0.2c0.2,0,0.5-0.1,0.7-0.2c0,0,0.1-0.1,0.2-0.1c0.1,0,0.1-0.1,0.2-0.2
		c0,0,0.1,0.1,0.2,0.1c0.1,0,0.1,0.1,0.2,0.1c-0.3,0.3-0.3,0.5-0.2,0.7c0.1,0.2,0.3,0.2,0.5,0.2c0.2,0,0.5-0.1,0.7-0.2
		c0,0,0.1,0,0.1,0c0,0,0,0,0.1,0c0,0,0.1,0.1,0.2,0.1c0.1,0,0.1,0,0.1,0.1c-0.1,0.2-0.1,0.4,0,0.5c0.1,0.2,0.3,0.2,0.5,0.2
		c0.3,0,0.5-0.1,0.7-0.2c0,0,0.1-0.1,0.2-0.1h0.3c-0.2,0.2-0.2,0.5-0.1,0.7c0.1,0.2,0.3,0.3,0.5,0.2c0.3,0,0.5-0.1,0.8-0.3
		c0.2-0.1,0.4-0.3,0.5-0.5h0.4c-0.1,0.1-0.3,0.2-0.4,0.3l-1.1,0.6c-0.1,0-0.1,0.1-0.2,0.1c-0.1,0-0.1,0-0.2,0.2c0,0-0.1,0.1-0.2,0.1
		c-0.1,0-0.1,0.1-0.2,0.1l-1.2,0.8c-0.1,0-0.3,0.1-0.4,0.2c-0.1,0-0.3,0.2-0.3,0.3l-1,0.6c-0.2,0-0.4,0.1-0.6,0.2
		c-0.2,0.1-0.4,0.3-0.5,0.6l-0.5,0.3c-0.3,0-0.6,0.1-0.8,0.2c-0.3,0.2-0.5,0.5-0.6,0.8l-0.2,0.2c-0.4,0-0.7,0.1-1.1,0.2
		c-0.5,0.4-0.7,0.7-0.7,1h-0.1c-0.3-0.2-0.6-0.1-1.1,0.2c-0.4,0.2-0.7,0.6-0.7,1c-0.2-0.2-0.4-0.2-0.8-0.1l-0.1-0.2
		c0.2,0,0.4-0.1,0.6-0.2c0.6-0.4,0.8-0.7,0.6-1.1c-0.3-0.4-0.7-0.4-1.3,0c-0.2,0.1-0.4,0.3-0.5,0.5l-0.1-0.2
		c0.2-0.2,0.3-0.5,0.2-0.8c-0.2-0.2-0.5-0.3-0.9-0.2l-0.2-0.2c0.2,0,0.5-0.1,0.7-0.2c0.6-0.4,0.8-0.7,0.6-1.1
		c-0.3-0.4-0.7-0.4-1.2,0c-0.2,0.1-0.4,0.3-0.5,0.6l-0.2-0.4c0.3-0.3,0.4-0.5,0.2-0.8c-0.1-0.3-0.4-0.4-0.8-0.2l-0.3-0.5
		c0.5,0.1,1.1-0.1,1.4-0.6c0.1-0.2,0.1-0.4,0-0.5c-0.2-0.3-0.6-0.3-1.1,0c-0.3,0.2-0.5,0.5-0.5,0.8l-0.4-0.5
		c0.4-0.4,0.5-0.6,0.3-0.8c-0.2-0.3-0.4-0.3-0.8-0.1l-0.8-1.1v0.7c-0.2-0.3-0.5-0.3-1,0c-0.5,0.3-0.6,0.6-0.5,0.9
		c0.2,0.3,0.5,0.3,1-0.1c0.2-0.1,0.4-0.2,0.5-0.5v2.2c-0.1,0.2-0.2,0.4-0.1,0.6l0.1,0.2v0.7c-0.2,0.1-0.3,0.3-0.4,0.5
		c-0.1,0.1-0.1,0.3,0,0.5c0.1,0.2,0.2,0.2,0.4,0.2v0.4c-0.1,0-0.1,0-0.1,0s0,0-0.1,0c-0.2,0.1-0.4,0.3-0.5,0.5
		c-0.1,0.2-0.1,0.4,0,0.5c0.1,0.3,0.3,0.3,0.7,0.2v0.2c-0.1,0-0.1,0.1-0.2,0.1c-0.1,0-0.1,0-0.2,0.2c-0.2,0.1-0.4,0.3-0.5,0.5
		c-0.1,0.2-0.1,0.4,0,0.5c0.2,0.3,0.5,0.3,1,0.1v0.3c-0.2,0-0.5,0.1-0.7,0.2c-0.2,0.1-0.4,0.3-0.6,0.6c-0.1,0.2-0.1,0.4,0,0.6
		c0.1,0.2,0.3,0.2,0.5,0.2c0.3,0,0.5-0.1,0.8-0.2v0.3c-0.3-0.1-0.6,0-1,0.2c-0.5,0.3-0.7,0.6-0.7,1c-0.3-0.2-0.7-0.1-1.2,0.2
		c-0.4,0.2-0.7,0.6-0.7,1.1c-0.3-0.3-0.7-0.2-1.2,0.2c-0.4,0.2-0.7,0.6-0.7,1c-0.3-0.3-0.7-0.2-1.2,0.2c-0.4,0.2-0.7,0.6-0.7,1
		c-0.4-0.2-0.8-0.2-1.2,0.2c-0.4,0.2-0.7,0.6-0.7,1c-0.4-0.2-0.8-0.2-1.2,0.2c-0.5,0.3-0.7,0.6-0.7,1c-0.3-0.2-0.7-0.1-1.2,0.2
		c-0.5,0.3-0.7,0.6-0.7,1c-0.3-0.2-0.7-0.2-1.1,0.2l0.2-0.3c0.3,0,0.5-0.1,0.8-0.2c0.6-0.4,0.8-0.7,0.6-1.1
		c-0.1-0.1-0.2-0.2-0.4-0.2c0-0.1,0.1-0.2,0.2-0.3c0.1-0.1,0.1-0.2,0.2-0.3c0.2-0.2,0.3-0.4,0.3-0.7c0,0,0.1,0,0.1-0.2
		c0.3,0.3,0.7,0.3,1.2-0.1c0.6-0.4,0.8-0.7,0.6-1.1c-0.3-0.4-0.7-0.4-1.3,0c0.1-0.1,0.1-0.3,0.2-0.5c0.3,0,0.5-0.1,0.8-0.2
		c0.6-0.4,0.8-0.7,0.5-1.1c-0.1-0.1-0.2-0.2-0.3-0.2c-0.2,0-0.3,0-0.5,0c0-0.1,0-0.1,0-0.2c0-0.1,0-0.2,0-0.2c0.1,0,0.3-0.1,0.4-0.2
		c0.6-0.4,0.7-0.7,0.5-1c-0.1-0.2-0.3-0.2-0.5-0.2c0-0.1,0-0.3,0.1-0.4c0,0,0.1-0.1,0.1-0.1s0.1,0,0.1-0.1c0.2-0.1,0.4-0.3,0.5-0.5
		c0.1-0.2,0.1-0.4,0-0.5c-0.1-0.2-0.3-0.2-0.5-0.2c0.1-0.1,0.1-0.3,0.1-0.5c0.1,0,0.1-0.1,0.1-0.1c0,0,0.1,0,0.1-0.1
		c0.5-0.3,0.6-0.6,0.5-0.9c-0.1-0.2-0.3-0.3-0.6-0.2v-0.5c0.1,0,0.3-0.1,0.4-0.2c0.2-0.1,0.4-0.2,0.5-0.4c0.1-0.2,0.1-0.3,0-0.4
		c-0.2-0.2-0.4-0.2-0.8-0.1v-0.6c0.2,0,0.4-0.1,0.6-0.2c0.5-0.3,0.6-0.5,0.5-0.8c-0.2-0.3-0.5-0.3-0.9,0c-0.1,0-0.1,0-0.2,0.1v-1
		c0.2,0.2,0.5,0.2,0.8-0.1c0.5-0.2,0.7-0.5,0.5-0.8c-0.2-0.3-0.5-0.3-0.9,0c-0.1,0.1-0.1,0.1-0.2,0.2c-0.1,0-0.1,0.1-0.2,0.2v-3.9
		c0.1-0.1,0.1-0.3,0-0.4v-1.1c0.3-0.2,0.4-0.4,0.2-0.5c0-0.1-0.1-0.2-0.2-0.2v-0.9c0.1,0,0.2,0,0.2-0.1c0.4-0.2,0.5-0.4,0.3-0.5
		c-0.1-0.2-0.2-0.2-0.5-0.1V79c0.2,0,0.3,0,0.5-0.1c0.3-0.2,0.3-0.3,0.2-0.5c-0.1-0.1-0.2-0.1-0.5,0c0,0-0.1,0.1-0.2,0.1v-8.8
		c0.2-0.1,0.3-0.2,0.2-0.3h-0.2V68c0.1,0,0.2,0,0.2-0.1c0.1,0,0.1-0.1,0.1-0.2C103.1,67.6,103,67.6,102.8,67.8L102.8,67.8z
		 M102.3,101c-0.3-0.4-0.7-0.4-1.3,0c-0.2,0.1-0.4,0.3-0.6,0.6c-0.1,0.2-0.1,0.4,0,0.6c0.1,0.2,0.3,0.2,0.5,0.2
		c0.3,0,0.5-0.1,0.8-0.2C102.3,101.8,102.5,101.4,102.3,101L102.3,101z M104.2,99.9c-0.3-0.4-0.7-0.4-1.3,0
		c-0.2,0.1-0.4,0.3-0.6,0.6c-0.1,0.2-0.1,0.4,0,0.6c0.1,0.2,0.3,0.3,0.5,0.2c0.3,0,0.5-0.1,0.8-0.2
		C104.2,100.6,104.4,100.3,104.2,99.9L104.2,99.9z M102.6,98.7c-0.1,0.2-0.1,0.4,0,0.6c0.2,0.4,0.6,0.4,1.2,0
		c0.6-0.4,0.8-0.7,0.6-1.1c-0.3-0.4-0.7-0.4-1.3,0C102.9,98.2,102.7,98.4,102.6,98.7L102.6,98.7z M102.9,97c-0.1,0.2-0.1,0.4,0,0.5
		c0.1,0.2,0.3,0.2,0.5,0.2c0.2,0,0.5-0.1,0.7-0.2c0.6-0.4,0.8-0.7,0.6-1.1c-0.3-0.4-0.7-0.4-1.2,0C103.2,96.6,103,96.7,102.9,97z
		 M102.8,105.2l10.3-6.9v19.3h-10.3V105.2z M103.7,76.7c-0.1-0.2-0.3-0.2-0.5,0c-0.3,0.2-0.3,0.4-0.2,0.5c0.1,0.2,0.3,0.2,0.5,0
		C103.7,77.1,103.8,76.9,103.7,76.7L103.7,76.7z M103,66.1c0,0.1,0.1,0.1,0.2,0c0.1,0,0.1,0,0.2-0.1V66c-0.1-0.1-0.2-0.1-0.2,0
		C103.1,66,103,66,103,66.1C103,66.1,103,66.1,103,66.1L103,66.1z M104.3,85.7c-0.2-0.3-0.5-0.3-0.8,0c-0.4,0.3-0.5,0.5-0.4,0.8
		c0.1,0.2,0.4,0.2,0.8,0C104.3,86.2,104.4,86,104.3,85.7L104.3,85.7z M103.1,95.7c0.3,0.4,0.6,0.4,1.1,0c0.2-0.1,0.4-0.3,0.5-0.5
		c0.1-0.2,0.1-0.4,0-0.5c-0.2-0.4-0.6-0.4-1.1,0C103.1,95,102.9,95.3,103.1,95.7L103.1,95.7z M103.4,75c-0.3,0.1-0.4,0.2-0.2,0.4
		c0.1,0.2,0.2,0.2,0.5,0c0.3-0.1,0.4-0.2,0.2-0.4C103.8,74.8,103.7,74.8,103.4,75L103.4,75z M103.4,84.7c0.1,0.2,0.4,0.2,0.8,0
		c0.4-0.3,0.5-0.5,0.4-0.7c-0.2-0.3-0.4-0.3-0.8,0C103.3,84.3,103.2,84.5,103.4,84.7L103.4,84.7z M103.4,94c0.2,0.3,0.6,0.3,1.1,0
		c0.2-0.1,0.4-0.3,0.5-0.5c0.1-0.2,0.1-0.4,0-0.5c-0.2-0.3-0.6-0.3-1.1,0C103.4,93.4,103.2,93.7,103.4,94L103.4,94z M103.4,73.7
		c0.1,0.2,0.3,0.2,0.5,0c0.3-0.1,0.3-0.2,0.2-0.4c-0.1-0.1-0.3-0.1-0.5,0C103.6,73.4,103.5,73.5,103.4,73.7L103.4,73.7z M103.6,83
		c0.2,0.2,0.4,0.2,0.8,0c0.4-0.3,0.5-0.5,0.3-0.7c-0.1-0.2-0.3-0.2-0.7,0C103.7,82.6,103.6,82.8,103.6,83L103.6,83z M103.8,92.3
		c0.2,0.3,0.5,0.3,1.1,0c0.2-0.1,0.4-0.3,0.5-0.5c0.1-0.2,0.1-0.4,0-0.5c-0.2-0.3-0.5-0.3-1,0C103.7,91.7,103.6,92,103.8,92.3
		L103.8,92.3z M103.8,72c0,0.1,0.2,0.1,0.5,0c0.2-0.2,0.2-0.3,0.2-0.4c-0.1-0.1-0.2-0.1-0.4,0C103.8,71.7,103.7,71.8,103.8,72
		L103.8,72z M103.9,81.3c0.2,0.2,0.5,0.2,0.6,0c0,0,0,0,0,0c0.4-0.2,0.5-0.4,0.3-0.6c-0.1-0.2-0.3-0.2-0.7,0
		C103.9,80.9,103.8,81.1,103.9,81.3L103.9,81.3z M104.1,90.1c-0.1,0.2-0.1,0.3,0,0.4c0.2,0.3,0.5,0.3,1,0c0.2-0.1,0.3-0.2,0.5-0.4
		c0.1-0.2,0.1-0.3,0-0.4c-0.2-0.3-0.5-0.3-1,0C104.3,89.8,104.2,89.9,104.1,90.1L104.1,90.1z M104.1,70.2c0.1,0.1,0.2,0.1,0.4,0
		c0.2-0.1,0.3-0.2,0.1-0.3c-0.1-0.2-0.2-0.2-0.4,0C104,70.1,104,70.2,104.1,70.2L104.1,70.2z M106.1,98.7c-0.3-0.4-0.7-0.4-1.3,0
		c-0.2,0.1-0.4,0.3-0.6,0.6c-0.1,0.2-0.1,0.4,0,0.6c0.1,0.2,0.3,0.3,0.5,0.2c0.3,0,0.5-0.1,0.8-0.2
		C106.1,99.4,106.3,99.1,106.1,98.7L106.1,98.7z M104.2,79.5c0.1,0.2,0.3,0.2,0.6,0c0.4-0.2,0.5-0.4,0.3-0.5c0-0.2-0.3-0.2-0.6,0
		C104.2,79.2,104.1,79.4,104.2,79.5L104.2,79.5z M104.4,88.4c-0.1,0.2-0.1,0.3,0,0.4c0.2,0.3,0.5,0.3,0.9,0c0.2-0.1,0.3-0.2,0.5-0.4
		c0.1-0.2,0.1-0.3,0-0.4c-0.2-0.3-0.5-0.3-0.9,0C104.6,88,104.5,88.2,104.4,88.4z M104.4,68.5c0,0.1,0.1,0.1,0.3,0
		c0.2-0.1,0.3-0.2,0.2-0.3c-0.1-0.1-0.2-0.1-0.3,0c0,0,0,0,0,0C104.3,68.3,104.3,68.4,104.4,68.5L104.4,68.5z M104.5,97.5
		c-0.1,0.2-0.1,0.4,0,0.6c0.2,0.4,0.6,0.4,1.2,0c0.6-0.4,0.8-0.7,0.6-1.1c-0.3-0.4-0.7-0.4-1.3,0C104.8,97.1,104.6,97.3,104.5,97.5
		L104.5,97.5z M105.3,77.2c-0.1-0.2-0.3-0.2-0.5,0c-0.3,0.2-0.4,0.3-0.3,0.5c0.1,0.2,0.3,0.2,0.6,0
		C105.4,77.6,105.4,77.4,105.3,77.2L105.3,77.2z M104.7,86.6c-0.1,0.1-0.1,0.3,0,0.4c0.2,0.3,0.5,0.3,0.8,0c0.5-0.3,0.6-0.5,0.5-0.8
		c-0.2-0.3-0.5-0.3-0.9,0C104.9,86.4,104.8,86.5,104.7,86.6z M104.7,66.8c0,0.2,0.1,0.2,0.2,0c0.1,0,0.2-0.1,0.2-0.2
		c-0.1-0.1-0.2-0.1-0.3,0C104.6,66.6,104.6,66.7,104.7,66.8L104.7,66.8z M104.8,95.8c-0.1,0.2-0.1,0.4,0,0.5
		c0.1,0.2,0.3,0.2,0.5,0.2c0.2,0,0.5-0.1,0.7-0.2c0.6-0.4,0.8-0.7,0.6-1.1c-0.3-0.4-0.7-0.4-1.2,0C105.1,95.4,104.9,95.6,104.8,95.8
		L104.8,95.8z M105,75.6c-0.3,0.2-0.3,0.3-0.2,0.5c0.1,0.2,0.3,0.2,0.5,0c0.2-0.2,0.3-0.3,0.2-0.5C105.5,75.4,105.3,75.4,105,75.6
		L105,75.6z M106.2,84.6c-0.2-0.3-0.5-0.3-0.8,0c-0.5,0.2-0.6,0.4-0.4,0.7c0.1,0.3,0.4,0.3,0.8,0C106.2,85.1,106.3,84.9,106.2,84.6
		L106.2,84.6z M105,94.6c0.3,0.3,0.6,0.3,1.1,0c0.7-0.4,0.8-0.7,0.5-1c-0.2-0.4-0.5-0.4-1.1,0C105,93.9,104.8,94.2,105,94.6
		L105,94.6z M105.1,74.3c0.1,0.2,0.3,0.2,0.5,0c0.3-0.1,0.3-0.3,0.2-0.5c-0.1-0.1-0.3-0.1-0.5,0C105.1,74,105,74.2,105.1,74.3
		L105.1,74.3z M105.3,83.6c0.1,0.2,0.4,0.2,0.8,0c0.4-0.3,0.5-0.5,0.4-0.8c-0.1-0.2-0.4-0.2-0.8,0C105.2,83.1,105.1,83.4,105.3,83.6
		L105.3,83.6z M105.3,92.9c0.3,0.3,0.6,0.3,1.1,0c0.5-0.4,0.6-0.7,0.5-1c-0.2-0.3-0.6-0.3-1.1,0C105.4,92.2,105.2,92.6,105.3,92.9
		L105.3,92.9z M105.3,72.5c0.1,0.2,0.3,0.2,0.5,0c0.3-0.1,0.3-0.2,0.2-0.4c-0.1,0-0.3,0-0.5,0C105.5,72.2,105.4,72.4,105.3,72.5
		L105.3,72.5z M105.5,81.9c0.2,0.2,0.4,0.2,0.8,0c0.4-0.3,0.5-0.5,0.4-0.7c-0.2-0.2-0.4-0.2-0.8,0C105.5,81.3,105.4,81.6,105.5,81.9
		L105.5,81.9z M107.2,90.7c0.1-0.2,0.1-0.4,0-0.5c-0.2-0.3-0.5-0.3-1,0c-0.6,0.3-0.7,0.6-0.5,0.9c0.2,0.3,0.5,0.3,1.1,0
		C106.9,91,107.1,90.9,107.2,90.7L107.2,90.7z M105.7,70.8c0.1,0.2,0.2,0.2,0.5,0c0.2-0.1,0.3-0.2,0.2-0.3c-0.1-0.2-0.2-0.2-0.4,0
		C105.6,70.6,105.5,70.7,105.7,70.8L105.7,70.8z M105.7,101.1c0.1-0.2,0.2-0.4,0.2-0.6c0.1,0.1,0.3,0.2,0.5,0.2L105.7,101.1z
		 M105.8,80.1c0.2,0.2,0.5,0.2,0.6,0c0,0,0,0,0,0c0.4-0.3,0.5-0.5,0.3-0.6c-0.1-0.2-0.3-0.2-0.7,0C105.9,79.7,105.8,79.9,105.8,80.1
		L105.8,80.1z M106,88.9c-0.1,0.2-0.1,0.3,0,0.4c0.2,0.3,0.5,0.3,1,0c0.2-0.1,0.3-0.2,0.5-0.4c0.1-0.2,0.1-0.3,0-0.4
		c-0.2-0.4-0.5-0.4-1,0C106.2,88.6,106.1,88.8,106,88.9L106,88.9z M106,69.1c0.1,0.1,0.2,0.1,0.4,0c0.2-0.2,0.2-0.3,0.2-0.4
		c-0.1-0.1-0.2-0.1-0.4,0C106,68.9,105.9,69,106,69.1L106,69.1z M108,97.5c-0.3-0.4-0.7-0.4-1.3,0c-0.6,0.5-0.8,0.9-0.6,1.2
		c0.1,0.2,0.3,0.2,0.5,0.2c0.3,0,0.5-0.1,0.8-0.3C107.9,98.3,108.2,97.9,108,97.5z M106.1,78.4c0.1,0.2,0.3,0.2,0.6,0
		c0.4-0.2,0.5-0.4,0.3-0.6c-0.1-0.2-0.3-0.2-0.6,0C106.1,78,106,78.2,106.1,78.4z M106.3,87.2c-0.1,0.2-0.1,0.3,0,0.4
		c0.1,0.3,0.5,0.3,0.9,0c0.2-0.1,0.3-0.2,0.5-0.4c0.1-0.2,0.1-0.3,0-0.4c-0.2-0.3-0.5-0.3-0.9,0C106.5,86.9,106.4,87,106.3,87.2
		L106.3,87.2z M106.3,67.4c0,0.1,0.1,0.1,0.3,0c0.2-0.1,0.3-0.2,0.2-0.3c-0.1-0.1-0.2-0.1-0.3,0c0,0,0,0,0,0
		C106.2,67.2,106.2,67.3,106.3,67.4L106.3,67.4z M106.4,96.4c-0.1,0.2-0.1,0.4,0,0.6c0.2,0.3,0.6,0.3,1.2-0.1
		c0.6-0.4,0.8-0.7,0.6-1.1c-0.3-0.4-0.7-0.4-1.3,0C106.7,96,106.5,96.2,106.4,96.4L106.4,96.4z M107.2,76.1c-0.1-0.2-0.3-0.2-0.5,0
		c-0.3,0.2-0.4,0.3-0.3,0.5c0.1,0.2,0.3,0.2,0.6,0C107.3,76.5,107.3,76.3,107.2,76.1L107.2,76.1z M106.6,65.6c0,0.2,0.1,0.2,0.2,0
		c0.1,0,0.1,0,0.2-0.1c0,0,0,0,0,0v-0.1c-0.1-0.1-0.2-0.1-0.3,0C106.4,65.4,106.4,65.5,106.6,65.6z M106.6,85.9
		c0.2,0.3,0.5,0.3,0.8,0c0.5-0.3,0.6-0.5,0.5-0.8s-0.5-0.3-0.9,0C106.5,85.4,106.4,85.7,106.6,85.9z M108.5,94.2
		c-0.3-0.4-0.7-0.4-1.2,0c-0.2,0.1-0.4,0.3-0.5,0.5c-0.1,0.2-0.1,0.4,0,0.5c0.2,0.3,0.6,0.3,1.1,0C108.5,94.9,108.7,94.5,108.5,94.2
		L108.5,94.2z M106.9,74.4c-0.3,0.1-0.3,0.3-0.2,0.5s0.3,0.2,0.5,0s0.3-0.4,0.2-0.5C107.4,74.3,107.2,74.3,106.9,74.4L106.9,74.4z
		 M108.1,83.5c-0.2-0.3-0.5-0.3-0.8,0c-0.5,0.2-0.6,0.4-0.4,0.7c0.1,0.3,0.4,0.3,0.8,0C108.1,83.9,108.2,83.7,108.1,83.5L108.1,83.5
		z M108.6,92.4c-0.2-0.3-0.5-0.3-1.1,0c-0.6,0.4-0.7,0.7-0.5,1.1c0.2,0.3,0.5,0.3,1.1,0C108.7,93.1,108.9,92.8,108.6,92.4
		L108.6,92.4z M107,73.1c0.1,0.2,0.3,0.2,0.5,0c0.2-0.2,0.3-0.3,0.2-0.5c-0.1-0.1-0.3-0.1-0.5,0C107,72.8,106.9,73,107,73.1
		L107,73.1z M107.2,82.4c0.1,0.3,0.4,0.3,0.8,0c0.4-0.2,0.5-0.4,0.4-0.7c-0.2-0.2-0.4-0.2-0.8,0C107.1,82,107,82.2,107.2,82.4
		L107.2,82.4z M108.9,90.7c-0.2-0.3-0.6-0.3-1.1,0c-0.5,0.4-0.7,0.7-0.5,1c0.3,0.3,0.6,0.3,1.1,0C108.9,91.4,109,91,108.9,90.7z
		 M107.3,71.4c0.1,0.2,0.3,0.2,0.5,0c0.3-0.1,0.4-0.2,0.2-0.4c-0.1,0-0.3,0-0.5,0C107.3,71.1,107.3,71.2,107.3,71.4L107.3,71.4z
		 M107.5,80.7c0.1,0.3,0.3,0.3,0.7,0c0.4-0.2,0.5-0.4,0.4-0.6c-0.2-0.2-0.4-0.2-0.8,0C107.4,80.2,107.3,80.4,107.5,80.7L107.5,80.7z
		 M109.1,89.1c-0.2-0.4-0.5-0.4-1,0c-0.6,0.3-0.7,0.6-0.5,0.9c0.2,0.3,0.5,0.3,1.1,0C109.1,89.6,109.2,89.3,109.1,89.1L109.1,89.1z
		 M107.6,69.6c0,0.2,0.2,0.2,0.5,0c0.2-0.1,0.3-0.2,0.2-0.3c-0.1-0.2-0.2-0.2-0.4,0C107.5,69.4,107.4,69.5,107.6,69.6L107.6,69.6z
		 M107.7,79c0.2,0.2,0.4,0.2,0.7-0.1c0.4-0.2,0.5-0.4,0.3-0.5c-0.1-0.3-0.3-0.3-0.7,0C107.7,78.6,107.6,78.8,107.7,79L107.7,79z
		 M107.8,99.8c0.1-0.1,0.1-0.2,0.1-0.4c0.1,0.1,0.2,0.1,0.3,0.1L107.8,99.8z M107.9,88.2c0.2,0.3,0.5,0.3,1,0
		c0.5-0.3,0.6-0.6,0.5-0.9c-0.2-0.3-0.5-0.3-1,0C107.9,87.7,107.7,88,107.9,88.2L107.9,88.2z M107.9,67.9c0.1,0.2,0.2,0.2,0.4,0
		c0.2-0.1,0.3-0.2,0.2-0.3c-0.1-0.1-0.2-0.1-0.4,0C107.8,67.7,107.7,67.8,107.9,67.9L107.9,67.9z M109.9,96.4
		c-0.3-0.4-0.7-0.4-1.3,0c-0.2,0.1-0.4,0.3-0.6,0.6c-0.1,0.2-0.1,0.4,0,0.6c0.1,0.2,0.3,0.3,0.5,0.2c0.3,0,0.5-0.1,0.8-0.2
		C109.9,97.1,110.1,96.8,109.9,96.4z M108,77.2c0.1,0.2,0.3,0.2,0.6,0c0.4-0.2,0.5-0.4,0.3-0.6c-0.1-0.2-0.3-0.2-0.6,0
		S107.9,77,108,77.2z M108.1,86.1c-0.1,0.2-0.1,0.3,0,0.4c0.2,0.3,0.5,0.3,0.9,0c0.2-0.1,0.3-0.2,0.5-0.4c0.1-0.2,0.1-0.3,0-0.4
		c-0.2-0.3-0.5-0.3-0.9,0C108.4,85.7,108.3,85.9,108.1,86.1L108.1,86.1z M108.1,66.2c0,0.2,0.1,0.2,0.3,0c0.2-0.1,0.2-0.2,0.2-0.2
		c-0.1-0.1-0.2-0.1-0.3,0c0,0,0,0,0,0C108.2,66,108.1,66.1,108.1,66.2L108.1,66.2z M108.3,95.2c-0.1,0.2-0.1,0.4,0,0.5
		c0.2,0.4,0.6,0.4,1.2,0c0.6-0.4,0.8-0.7,0.6-1.1c-0.3-0.4-0.7-0.4-1.3,0C108.6,94.8,108.4,95,108.3,95.2z M109.1,75
		c-0.1-0.2-0.3-0.2-0.5,0c-0.3,0.2-0.4,0.3-0.3,0.5c0.1,0.2,0.3,0.2,0.6,0C109.2,75.3,109.2,75.2,109.1,75z M108.5,84.7
		c0.2,0.3,0.5,0.3,0.8,0c0.5-0.3,0.6-0.5,0.5-0.8c-0.2-0.3-0.5-0.3-0.9,0C108.4,84.3,108.3,84.5,108.5,84.7L108.5,84.7z M110.3,93.5
		c0.1-0.2,0.1-0.4,0-0.5c-0.3-0.4-0.7-0.4-1.2,0c-0.2,0.1-0.4,0.3-0.5,0.5c-0.1,0.2-0.1,0.4,0,0.5c0.1,0.2,0.3,0.2,0.5,0.2
		c0.2,0,0.5-0.1,0.7-0.2C110,93.9,110.2,93.7,110.3,93.5L110.3,93.5z M108.6,73.7c0.1,0.2,0.3,0.2,0.5,0c0.3-0.2,0.3-0.3,0.2-0.5
		c-0.1-0.1-0.3-0.1-0.5,0.1C108.6,73.4,108.5,73.5,108.6,73.7L108.6,73.7z M108.7,83c0.1,0.3,0.4,0.3,0.8,0c0.4-0.3,0.5-0.5,0.4-0.8
		c-0.2-0.2-0.5-0.2-0.8,0C108.7,82.5,108.6,82.7,108.7,83L108.7,83z M110.5,91.3c-0.2-0.3-0.5-0.3-1.1,0c-0.6,0.4-0.7,0.7-0.5,1.1
		c0.2,0.3,0.6,0.3,1.1-0.1C110.6,92,110.8,91.7,110.5,91.3L110.5,91.3z M108.9,72c0.1,0.1,0.3,0.1,0.5,0c0.2-0.2,0.3-0.3,0.2-0.5
		c-0.1-0.1-0.3-0.1-0.5,0C108.9,71.7,108.8,71.8,108.9,72L108.9,72z M109.1,81.3c0.1,0.3,0.4,0.3,0.8,0c0.4-0.2,0.5-0.4,0.4-0.7
		c-0.2-0.2-0.4-0.2-0.8,0C109,80.9,108.9,81.1,109.1,81.3L109.1,81.3z M110.7,90.1c0.1-0.2,0.1-0.4,0-0.5c-0.2-0.3-0.5-0.3-1.1,0
		c-0.6,0.3-0.7,0.6-0.5,1c0.3,0.3,0.6,0.3,1.1,0C110.5,90.5,110.6,90.3,110.7,90.1z M109.1,70.3c0.1,0.1,0.3,0.1,0.5,0
		c0.3-0.1,0.4-0.2,0.2-0.4c-0.1-0.2-0.3-0.2-0.5,0C109.2,70,109.1,70.1,109.1,70.3z M109.4,79.5c0.1,0.3,0.3,0.3,0.7,0
		c0.4-0.2,0.5-0.4,0.4-0.6c-0.2-0.3-0.4-0.3-0.8,0C109.3,79.1,109.2,79.3,109.4,79.5L109.4,79.5z M111,87.9c-0.2-0.4-0.5-0.4-1,0
		c-0.5,0.3-0.7,0.6-0.5,0.9c0.2,0.3,0.5,0.3,1.1,0C111,88.5,111.1,88.2,111,87.9L111,87.9z M109.4,68.5c0,0.1,0.2,0.1,0.5,0
		c0.2-0.1,0.3-0.2,0.2-0.4c-0.1-0.1-0.3-0.1-0.4,0C109.5,68.2,109.5,68.4,109.4,68.5L109.4,68.5z M109.6,77.8c0.2,0.3,0.4,0.3,0.7,0
		c0.4-0.2,0.5-0.4,0.3-0.6c-0.1-0.2-0.3-0.2-0.7,0C109.6,77.4,109.5,77.6,109.6,77.8L109.6,77.8z M111.2,86.2c-0.2-0.3-0.5-0.3-1,0
		c-0.2,0.1-0.4,0.3-0.5,0.5c-0.1,0.2-0.1,0.4,0,0.5c0.2,0.3,0.5,0.3,1,0C111.2,86.7,111.3,86.4,111.2,86.2L111.2,86.2z M109.8,66.8
		c0.1,0.1,0.2,0.1,0.4,0c0.2-0.1,0.3-0.2,0.2-0.3c-0.1-0.1-0.3-0.1-0.4,0C109.7,66.6,109.6,66.7,109.8,66.8L109.8,66.8z M109.8,98.5
		v-0.2l0.2,0.1L109.8,98.5z M110.5,95.2c-0.2,0.1-0.4,0.3-0.6,0.6c-0.1,0.2-0.1,0.4,0,0.6c0.1,0.2,0.3,0.2,0.5,0.2
		c0.3,0,0.5-0.1,0.8-0.2c0.6-0.4,0.8-0.7,0.6-1.1C111.5,94.9,111.1,94.9,110.5,95.2z M109.9,76c0.1,0.2,0.3,0.2,0.7,0
		c0.3-0.2,0.4-0.4,0.2-0.5c-0.1-0.2-0.3-0.2-0.6,0C109.9,75.7,109.8,75.9,109.9,76L109.9,76z M111.4,84.9c0.1-0.2,0.1-0.3,0-0.4
		c-0.2-0.3-0.5-0.3-0.9,0c-0.2,0.1-0.4,0.2-0.5,0.4c-0.1,0.2-0.1,0.3,0,0.4c0.2,0.3,0.5,0.3,0.9,0C111.2,85.3,111.3,85.1,111.4,84.9
		z M112,93.6c-0.3-0.4-0.7-0.4-1.3,0c-0.2,0.1-0.4,0.3-0.5,0.5c-0.1,0.2-0.1,0.4,0,0.5c0.2,0.4,0.6,0.4,1.2,0
		C112,94.3,112.2,93.9,112,93.6L112,93.6z M110.2,74.3c0.2,0.2,0.4,0.1,0.6-0.1c0.3-0.1,0.3-0.3,0.2-0.5c-0.1-0.2-0.3-0.2-0.5,0
		C110.2,74,110.1,74.2,110.2,74.3z M111.6,83.2c0.1-0.2,0.1-0.3,0-0.4c-0.2-0.3-0.5-0.3-0.9,0c-0.1,0.1-0.3,0.2-0.4,0.4
		c-0.1,0.1-0.1,0.3,0,0.4c0.2,0.3,0.5,0.3,0.8,0C111.4,83.5,111.5,83.4,111.6,83.2L111.6,83.2z M112.2,91.8c-0.3-0.3-0.7-0.3-1.2,0
		c-0.2,0.1-0.4,0.3-0.5,0.5c-0.1,0.2-0.1,0.4,0,0.5c0.1,0.2,0.3,0.2,0.5,0.2c0.2,0,0.5-0.1,0.7-0.2
		C112.3,92.5,112.5,92.2,112.2,91.8L112.2,91.8z M110.5,72.6c0.1,0.1,0.3,0.1,0.5,0c0.3-0.2,0.3-0.3,0.2-0.5c-0.1-0.1-0.3-0.1-0.5,0
		C110.5,72.2,110.4,72.4,110.5,72.6L110.5,72.6z M111.9,81.1c-0.2-0.2-0.5-0.2-0.8,0c-0.4,0.3-0.5,0.5-0.4,0.8
		c0.1,0.3,0.4,0.3,0.8,0C111.8,81.6,112,81.4,111.9,81.1L111.9,81.1z M112.4,90.1c-0.2-0.4-0.5-0.4-1.1,0c-0.2,0.1-0.4,0.3-0.5,0.5
		c-0.1,0.1-0.1,0.3,0,0.5c0.2,0.4,0.5,0.4,1.1,0C112.5,90.9,112.7,90.5,112.4,90.1L112.4,90.1z M110.8,70.8c0.1,0.1,0.3,0.1,0.5,0
		c0.2-0.2,0.3-0.3,0.2-0.5c-0.1-0.2-0.3-0.2-0.5,0C110.8,70.6,110.7,70.7,110.8,70.8L110.8,70.8z M110.9,79.8
		c-0.1,0.1-0.1,0.3,0,0.3c0.1,0.3,0.4,0.3,0.8,0c0.4-0.3,0.5-0.5,0.4-0.7c-0.1-0.3-0.4-0.3-0.8,0C111.1,79.5,111,79.6,110.9,79.8
		L110.9,79.8z M112.6,88.9c0.1-0.2,0.1-0.3,0-0.5c-0.2-0.4-0.6-0.4-1.1,0c-0.6,0.3-0.7,0.6-0.5,0.9c0.3,0.4,0.6,0.4,1.1,0
		C112.4,89.3,112.5,89.1,112.6,88.9L112.6,88.9z M111.1,69.1c0,0.2,0.1,0.2,0.4,0c0.3-0.2,0.3-0.3,0.2-0.4c-0.1-0.2-0.3-0.2-0.5,0
		C111.1,68.8,111,69,111.1,69.1L111.1,69.1z M111.3,78.4c0.1,0.2,0.3,0.2,0.7,0c0.4-0.2,0.5-0.4,0.4-0.6c-0.2-0.3-0.4-0.3-0.8,0
		C111.2,78,111.1,78.2,111.3,78.4L111.3,78.4z M111.3,87.7c0.2,0.3,0.6,0.3,1.1-0.1c0.5-0.3,0.6-0.6,0.5-0.9c-0.2-0.3-0.5-0.3-1,0
		C111.4,87.1,111.2,87.4,111.3,87.7L111.3,87.7z M111.3,67.4c0.1,0.1,0.2,0.1,0.5,0c0.2-0.1,0.3-0.2,0.2-0.4c-0.1-0.1-0.3-0.1-0.4,0
		C111.4,67.1,111.4,67.2,111.3,67.4L111.3,67.4z M111.5,76.6c0.2,0.2,0.5,0.2,0.6,0c0,0,0,0,0,0c0.4-0.2,0.5-0.4,0.3-0.6
		c-0.1-0.2-0.3-0.2-0.6,0C111.5,76.2,111.4,76.4,111.5,76.6L111.5,76.6z M111.6,65.6c0.1,0.1,0.2,0.1,0.4,0c0.2-0.1,0.3-0.2,0.2-0.3
		c-0.1-0.1-0.2-0.1-0.4,0C111.6,65.4,111.5,65.5,111.6,65.6L111.6,65.6z M111.6,97.2L111.6,97.2L111.6,97.2L111.6,97.2z M112.7,74.3
		c-0.1-0.2-0.3-0.2-0.6,0c-0.3,0.2-0.4,0.4-0.3,0.5c0.1,0.2,0.3,0.2,0.7,0C112.8,74.7,112.9,74.5,112.7,74.3z M113.3,83.8
		c0.1-0.2,0.1-0.3,0-0.4c-0.2-0.3-0.5-0.3-0.9,0c-0.2,0.1-0.3,0.2-0.5,0.4c-0.1,0.2-0.1,0.3,0,0.4c0.1,0.3,0.5,0.3,0.9,0
		C113,84.1,113.2,84,113.3,83.8L113.3,83.8z M112.1,73.1c0.1,0.2,0.3,0.2,0.6,0c0.3-0.2,0.3-0.4,0.2-0.5c-0.1-0.2-0.3-0.2-0.5,0
		C112.1,72.8,112,72.9,112.1,73.1L112.1,73.1z M113.5,82.1c0.1-0.2,0.1-0.3,0-0.4c-0.2-0.2-0.5-0.2-0.9,0c-0.4,0.3-0.5,0.6-0.4,0.8
		c0.2,0.2,0.5,0.2,0.8,0C113.3,82.4,113.4,82.2,113.5,82.1z M112.4,71.4c0.1,0.2,0.3,0.2,0.5,0c0.3-0.1,0.3-0.3,0.2-0.5
		c-0.1-0.2-0.3-0.2-0.5,0C112.4,71.1,112.3,71.3,112.4,71.4L112.4,71.4z M112.6,80.7c0.1,0.2,0.4,0.2,0.8,0c0.4-0.3,0.5-0.5,0.4-0.8
		c-0.2-0.3-0.5-0.3-0.8,0C112.5,80.2,112.4,80.5,112.6,80.7L112.6,80.7z M112.7,69.7c0.1,0.1,0.3,0.1,0.5,0c0.3-0.2,0.3-0.4,0.2-0.5
		c-0.1-0.2-0.3-0.2-0.5,0C112.7,69.4,112.6,69.5,112.7,69.7L112.7,69.7z M112.9,79c0.1,0.2,0.4,0.2,0.8,0c0.4-0.3,0.5-0.5,0.4-0.7
		c-0.2-0.3-0.4-0.3-0.8,0C112.8,78.5,112.7,78.7,112.9,79L112.9,79z M113,68c0,0.2,0.1,0.2,0.4,0c0.2-0.2,0.3-0.3,0.2-0.5
		c-0.1-0.1-0.3-0.1-0.5,0C113,67.6,113,67.8,113,68L113,68z M114.2,76.6c-0.2-0.2-0.4-0.2-0.8,0c-0.4,0.3-0.5,0.5-0.3,0.7
		c0.1,0.2,0.3,0.2,0.7,0C114.2,77.1,114.3,76.9,114.2,76.6L114.2,76.6z M113.4,75.5c0.2,0.2,0.5,0.2,0.6,0c0,0,0,0,0,0
		c0.4-0.2,0.5-0.4,0.4-0.6c-0.2-0.2-0.5-0.2-0.7,0c0,0,0,0,0,0C113.4,75.1,113.3,75.3,113.4,75.5z M115,84.3c0.1-0.2,0.1-0.3,0-0.4
		c-0.2-0.3-0.5-0.3-1,0c-0.2,0.1-0.3,0.2-0.5,0.4c-0.1,0.2-0.1,0.3,0,0.4c0.1,0.1,0.3,0.2,0.4,0.2c0.2,0,0.4-0.1,0.6-0.2
		C114.7,84.7,114.9,84.5,115,84.3L115,84.3z M113.7,73.7c0.1,0.2,0.3,0.2,0.7,0c0.3-0.2,0.4-0.4,0.2-0.5c-0.1-0.2-0.3-0.2-0.6,0
		C113.7,73.4,113.6,73.6,113.7,73.7z M115.2,82.2c-0.2-0.3-0.5-0.3-0.9,0c-0.5,0.3-0.6,0.5-0.5,0.8c0.2,0.3,0.5,0.3,0.9,0
		C115.2,82.8,115.4,82.5,115.2,82.2z M114,72c0.1,0.2,0.3,0.2,0.6,0c0.3-0.2,0.3-0.3,0.2-0.5c-0.1-0.1-0.2-0.1-0.5,0
		C114,71.7,113.9,71.8,114,72z M114.1,81.3c0.2,0.2,0.5,0.2,0.8-0.1c0.5-0.2,0.7-0.5,0.5-0.8c-0.2-0.3-0.5-0.3-0.9,0
		C114.1,80.8,114,81.1,114.1,81.3z M114.3,70.3c0.1,0.2,0.3,0.2,0.5,0c0.3-0.1,0.3-0.3,0.2-0.5c-0.1-0.2-0.3-0.2-0.5,0
		C114.3,70,114.2,70.2,114.3,70.3z M114.5,79.6c0.1,0.2,0.4,0.2,0.8,0c0.4-0.3,0.5-0.5,0.4-0.8c-0.2-0.3-0.5-0.3-0.8,0
		C114.4,79.1,114.3,79.3,114.5,79.6L114.5,79.6z M115.9,77.2c-0.2-0.3-0.4-0.3-0.8,0c-0.4,0.2-0.5,0.4-0.3,0.7
		c0.1,0.2,0.4,0.2,0.8,0C115.9,77.6,116,77.4,115.9,77.2L115.9,77.2z M115,76.1c0.1,0.2,0.3,0.2,0.7,0c0.3-0.3,0.4-0.5,0.4-0.7
		c-0.2-0.2-0.4-0.2-0.8,0C115,75.7,114.9,75.9,115,76.1L115,76.1z M116.6,84.9c0.1-0.2,0.1-0.4,0-0.5c-0.2-0.3-0.5-0.3-1,0
		c-0.6,0.3-0.7,0.6-0.5,0.9c0.2,0.3,0.5,0.3,1.1,0C116.4,85.3,116.6,85.1,116.6,84.9L116.6,84.9z M152.1,73c-1.1,0.9-2.1,2-2.9,3.2
		c-0.8,1.3-1.5,2.7-2.1,4.2c-0.7,1.9-1.2,4-1.3,6v31.3h-10.3l-12.3-18.4c-1.2-1.1-2.3-1.9-3.3-2.2c-0.8-0.3-1.7-0.5-2.6-0.6
		c-0.8,0-1.6,0.2-2.3,0.5l4.6-3.1l8.8-5.9l7.1,10.5V83.3l10.3-7L152.1,73z M115.3,74.3c0.2,0.2,0.5,0.2,0.6,0c0,0,0,0,0,0
		c0.4-0.2,0.5-0.4,0.4-0.6c-0.2-0.2-0.5-0.2-0.7,0c0,0,0,0,0,0C115.3,73.9,115.2,74.2,115.3,74.3z M116.9,83.2
		c0.1-0.2,0.1-0.3,0-0.4c-0.2-0.3-0.5-0.3-1,0c-0.2,0.1-0.4,0.2-0.5,0.4c-0.1,0.2-0.1,0.3,0,0.4c0.2,0.3,0.5,0.3,1,0
		C116.6,83.5,116.8,83.4,116.9,83.2z M115.6,72.6c0.1,0.2,0.3,0.2,0.7,0c0.3-0.2,0.4-0.4,0.2-0.5c-0.1-0.2-0.3-0.2-0.6,0
		C115.6,72.3,115.5,72.5,115.6,72.6L115.6,72.6z M115.7,81.5c-0.1,0.2-0.1,0.3,0,0.4c0.2,0.3,0.5,0.3,0.9,0c0.2-0.1,0.3-0.2,0.5-0.4
		c0.1-0.2,0.1-0.3,0-0.4c-0.2-0.3-0.5-0.3-0.9,0C116,81.1,115.9,81.3,115.7,81.5L115.7,81.5z M116,79.8c-0.1,0.2-0.1,0.3,0,0.4
		c0.2,0.3,0.5,0.3,0.9,0c0.4-0.3,0.5-0.6,0.4-0.8c-0.1-0.3-0.5-0.3-0.9,0C116.3,79.5,116.1,79.6,116,79.8L116,79.8z M117.6,77.7
		c-0.2-0.3-0.5-0.3-0.8,0c-0.5,0.2-0.6,0.4-0.4,0.7c0.1,0.3,0.4,0.3,0.8,0C117.6,78.2,117.7,77.9,117.6,77.7L117.6,77.7z
		 M118.1,86.7c-0.2-0.4-0.6-0.4-1.1,0c-0.7,0.3-0.8,0.6-0.5,1c0.2,0.3,0.5,0.3,1.1,0C118.2,87.3,118.3,87,118.1,86.7L118.1,86.7z
		 M116.7,76.7c0.1,0.2,0.4,0.2,0.8,0c0.4-0.3,0.5-0.5,0.4-0.8c-0.2-0.2-0.4-0.2-0.8,0C116.6,76.2,116.5,76.5,116.7,76.7L116.7,76.7z
		 M116.8,86c0.1,0.3,0.5,0.3,1.1,0c0.5-0.4,0.6-0.7,0.5-1c-0.2-0.3-0.6-0.3-1.1,0C116.7,85.3,116.6,85.7,116.8,86L116.8,86z M117,75
		c0.1,0.2,0.3,0.2,0.7,0c0.4-0.3,0.5-0.5,0.4-0.7c-0.2-0.2-0.4-0.2-0.8,0C116.9,74.5,116.8,74.7,117,75L117,75z M118.6,83.8
		c0.1-0.2,0.1-0.4,0-0.5c-0.2-0.3-0.5-0.3-1,0c-0.6,0.3-0.7,0.6-0.5,0.9c0.2,0.3,0.5,0.3,1.1,0C118.3,84.1,118.5,84,118.6,83.8
		L118.6,83.8z M117.3,82.1c-0.1,0.2-0.1,0.3,0,0.4c0.2,0.3,0.5,0.3,1,0c0.2-0.1,0.3-0.2,0.5-0.4c0.1-0.2,0.1-0.3,0-0.4
		c-0.2-0.4-0.5-0.4-1,0C117.6,81.7,117.4,81.9,117.3,82.1L117.3,82.1z M119,80.3c0.1-0.2,0.1-0.3,0-0.4c-0.2-0.3-0.5-0.3-0.9,0
		c-0.2,0.1-0.3,0.2-0.5,0.4c-0.1,0.2-0.1,0.3,0,0.4c0.2,0.3,0.5,0.3,0.9,0C118.8,80.6,118.9,80.5,119,80.3L119,80.3z M118.3,90.3
		c0.3,0,0.5-0.1,0.7-0.3c0.6-0.4,0.8-0.7,0.6-1.1c-0.3-0.4-0.7-0.4-1.3,0c-0.2,0.1-0.4,0.3-0.5,0.6c-0.1,0.2-0.1,0.4,0,0.6
		C117.9,90.2,118.1,90.3,118.3,90.3z M117.9,79c0.2,0.3,0.5,0.3,0.9,0c0.4-0.3,0.5-0.6,0.4-0.8c-0.2-0.3-0.5-0.3-0.9,0
		C117.9,78.5,117.8,78.8,117.9,79L117.9,79z M118.1,87.8c-0.1,0.2-0.1,0.4,0,0.5c0.2,0.3,0.6,0.3,1.1,0c0.6-0.4,0.8-0.7,0.6-1.1
		c-0.3-0.4-0.7-0.4-1.2,0C118.4,87.4,118.2,87.6,118.1,87.8L118.1,87.8z M118.3,77.2c0.1,0.3,0.4,0.3,0.8,0c0.4-0.2,0.5-0.4,0.4-0.7
		c-0.2-0.3-0.5-0.3-0.8,0C118.1,76.8,118,77,118.3,77.2L118.3,77.2z M120,85.5c-0.2-0.3-0.6-0.3-1.1,0c-0.6,0.4-0.8,0.7-0.5,1.1
		c0.2,0.3,0.5,0.3,1.1,0C120.1,86.2,120.2,85.9,120,85.5z M120.2,83.8c-0.2-0.3-0.6-0.3-1.1,0c-0.6,0.4-0.7,0.7-0.5,1
		c0.2,0.3,0.5,0.3,1.1,0C120.2,84.5,120.4,84.1,120.2,83.8L120.2,83.8z M118.9,83.1c0.2,0.3,0.5,0.3,1.1,0c0.5-0.4,0.6-0.7,0.5-0.9
		c-0.2-0.4-0.5-0.4-1,0C118.9,82.5,118.7,82.8,118.9,83.1L118.9,83.1z M119.2,81.3c0.2,0.3,0.5,0.3,1,0c0.5-0.3,0.6-0.6,0.5-0.9
		c-0.2-0.3-0.5-0.3-1,0C119.2,80.8,119.1,81.1,119.2,81.3L119.2,81.3z M121.3,89.4c-0.3-0.4-0.7-0.4-1.3,0c-0.2,0.1-0.4,0.3-0.6,0.6
		c-0.1,0.2-0.1,0.4,0,0.6c0.1,0.2,0.3,0.3,0.5,0.2c0.3,0,0.5-0.1,0.8-0.2C121.3,90.2,121.5,89.9,121.3,89.4L121.3,89.4z M119.5,79.2
		c-0.1,0.2-0.1,0.3,0,0.4c0.2,0.3,0.5,0.3,0.9,0c0.2-0.1,0.3-0.2,0.5-0.4c0.1-0.2,0.1-0.3,0-0.4c-0.2-0.3-0.5-0.3-0.9,0
		C119.8,78.8,119.6,79,119.5,79.2L119.5,79.2z M119.7,88.3c-0.1,0.2-0.1,0.4,0,0.5c0.1,0.2,0.3,0.2,0.5,0.2c0.3,0,0.5-0.1,0.7-0.2
		c0.6-0.4,0.8-0.7,0.6-1.1c-0.3-0.4-0.7-0.4-1.3,0C120,87.9,119.8,88.1,119.7,88.3L119.7,88.3z M120,86.6c-0.1,0.2-0.1,0.4,0,0.5
		c0.1,0.2,0.3,0.2,0.5,0.2c0.2,0,0.5-0.1,0.7-0.2c0.2-0.1,0.4-0.3,0.6-0.5c0.1-0.2,0.1-0.4,0-0.5c-0.3-0.4-0.7-0.4-1.2,0
		C120.3,86.2,120.1,86.4,120,86.6L120,86.6z M122,84.4c-0.3-0.3-0.6-0.3-1.1,0c-0.6,0.4-0.8,0.7-0.5,1.1c0.2,0.3,0.6,0.2,1.1-0.1
		C122,85.1,122.2,84.8,122,84.4L122,84.4z M122.1,83.1c0.1-0.2,0.1-0.4,0-0.5c-0.2-0.3-0.5-0.3-1.1,0c-0.6,0.3-0.7,0.6-0.5,1
		c0.2,0.3,0.5,0.3,1.1,0C121.9,83.5,122,83.4,122.1,83.1L122.1,83.1z M120.8,81.9c0.2,0.3,0.5,0.3,1.1,0c0.5-0.4,0.6-0.7,0.5-0.9
		c-0.2-0.4-0.5-0.4-1,0C120.9,81.3,120.7,81.6,120.8,81.9L120.8,81.9z M123.2,88.3c-0.3-0.4-0.7-0.4-1.3,0c-0.2,0.1-0.4,0.3-0.6,0.6
		c-0.1,0.2-0.1,0.4,0,0.6c0.1,0.2,0.3,0.2,0.5,0.2c0.3,0,0.5-0.1,0.8-0.2C123.2,89.1,123.4,88.7,123.2,88.3L123.2,88.3z M121.6,87.2
		c-0.1,0.2-0.1,0.4,0,0.5c0.1,0.2,0.3,0.2,0.5,0.2c0.3,0,0.5-0.1,0.7-0.2c0.6-0.4,0.8-0.7,0.6-1.1c-0.3-0.4-0.7-0.4-1.3,0
		C121.9,86.8,121.7,86.9,121.6,87.2L121.6,87.2z M123.6,84.9c-0.3-0.3-0.7-0.3-1.2,0c-0.2,0.1-0.4,0.3-0.5,0.5
		c-0.1,0.2-0.1,0.4,0,0.5c0.1,0.2,0.3,0.2,0.5,0.2c0.2,0,0.5-0.1,0.7-0.2C123.6,85.6,123.8,85.3,123.6,84.9L123.6,84.9z M122.2,83.7
		c-0.1,0.2-0.1,0.4,0,0.5c0.1,0.2,0.3,0.2,0.5,0.2c0.2,0,0.5-0.1,0.7-0.2c0.6-0.3,0.7-0.6,0.5-1c-0.3-0.4-0.6-0.4-1.1,0
		C122.5,83.3,122.3,83.5,122.2,83.7L122.2,83.7z M125.1,87.1c-0.3-0.4-0.7-0.4-1.3,0c-0.2,0.1-0.4,0.3-0.6,0.6
		c-0.1,0.2-0.1,0.4,0,0.6c0.1,0.2,0.3,0.3,0.5,0.2c0.3,0,0.5-0.1,0.8-0.2C125.1,88,125.3,87.6,125.1,87.1L125.1,87.1z M123.5,86
		c-0.1,0.2-0.1,0.4,0,0.5c0.1,0.2,0.3,0.2,0.5,0.2c0.3,0,0.5-0.1,0.7-0.2c0.6-0.4,0.8-0.7,0.6-1.1c-0.3-0.4-0.7-0.4-1.3,0
		C123.8,85.6,123.6,85.8,123.5,86L123.5,86z M123.8,84.3c-0.1,0.2-0.1,0.4,0,0.5c0.1,0.2,0.3,0.2,0.5,0.2c0.2,0,0.5-0.1,0.7-0.2
		c0.6-0.4,0.8-0.7,0.6-1.1c-0.3-0.4-0.7-0.4-1.2,0C124.1,83.9,123.9,84.1,123.8,84.3L123.8,84.3z M127,86c-0.3-0.4-0.7-0.4-1.3,0
		c-0.2,0.1-0.4,0.3-0.6,0.6c-0.1,0.2-0.1,0.4,0,0.6c0.1,0.2,0.3,0.3,0.5,0.2c0.3,0,0.5-0.1,0.8-0.2C127,86.8,127.2,86.4,127,86
		L127,86z M125.4,84.8c-0.1,0.2-0.1,0.4,0,0.6c0.1,0.2,0.3,0.2,0.5,0.2c0.3,0,0.5-0.1,0.7-0.2c0.6-0.4,0.8-0.7,0.6-1.1
		c-0.3-0.4-0.7-0.4-1.3,0C125.7,84.4,125.5,84.6,125.4,84.8L125.4,84.8z M127,85.4c-0.1,0.2-0.1,0.4,0,0.6c0.1,0.2,0.3,0.2,0.5,0.2
		c0.3,0,0.5-0.1,0.8-0.2c0.6-0.4,0.8-0.8,0.6-1.1c-0.3-0.4-0.7-0.4-1.3,0C127.4,85,127.1,85.2,127,85.4L127,85.4z M135.5,65.2h0.2
		c0.1,0.1,0.3,0.1,0.5,0h1.1c-0.2,0.2-0.3,0.4-0.2,0.5c0.2,0.2,0.4,0.2,0.8,0c0.2-0.1,0.4-0.3,0.4-0.5h2.4c0.1,0.2,0.4,0.2,0.8,0
		h0.9c-0.2,0.2-0.3,0.4-0.2,0.5c0.2,0.3,0.5,0.3,0.9,0c0.2-0.1,0.4-0.3,0.5-0.5h2.1v0.9c-0.3,0.3-0.4,0.6-0.3,0.8
		c0.1,0.1,0.2,0.1,0.3,0.2v0.5l-0.1,0.1c-0.2,0.1-0.4,0.3-0.5,0.5c-0.1,0.2-0.1,0.3,0,0.5c0,0.2,0.2,0.2,0.5,0.2v0.4
		c0,0-0.1,0.1-0.2,0.1c-0.1,0-0.1,0-0.2,0.1c-0.6,0.4-0.7,0.7-0.5,1c0.2,0.3,0.4,0.3,0.8,0.2v0.4c-0.2,0-0.4,0.1-0.6,0.2
		c-0.2,0.1-0.4,0.3-0.5,0.6c-0.1,0.2-0.1,0.4,0,0.5c0.1,0.2,0.3,0.2,0.5,0.2c0.2,0,0.5-0.1,0.7-0.2v0.5c-0.3-0.1-0.6,0-0.8,0.2
		c-0.6,0.4-0.8,0.7-0.6,1.1c0.1,0.2,0.3,0.2,0.5,0.2c0.3,0,0.5-0.1,0.7-0.2c0,0,0.1-0.1,0.2-0.2v0.5l-0.2,0.1c-0.3,0-0.7,0-1,0.2
		c-0.5,0.3-0.7,0.6-0.7,0.9l-0.1,0.1c-0.3-0.2-0.7-0.1-1.1,0.2c-0.6,0.4-0.8,0.7-0.7,1.1c-0.3-0.3-0.7-0.2-1.2,0.1
		c-0.6,0.4-0.8,0.8-0.6,1.1c-0.3-0.4-0.7-0.3-1.3,0.1c-0.6,0.4-0.8,0.7-0.6,1.1l0.1,0.1l-0.1-0.1c-0.3-0.4-0.7-0.4-1.3,0
		c-0.6,0.4-0.8,0.7-0.6,1.1l0.2,0.2l-0.1,0.1c0,0,0-0.1,0-0.1c0,0,0-0.1,0-0.1c-0.2-0.3-0.5-0.3-1-0.2v-0.2c0.2,0,0.4-0.1,0.6-0.2
		c0.6-0.4,0.8-0.7,0.6-1.1c-0.2-0.3-0.6-0.3-1.2-0.1v-0.4c0.3,0,0.6-0.1,0.8-0.2c0.6-0.4,0.8-0.7,0.6-1.1c-0.3-0.4-0.7-0.4-1.2,0
		c-0.1,0.1-0.2,0.2-0.2,0.2v-0.8c0.3,0.3,0.6,0.2,1.1-0.1c0.5-0.4,0.7-0.7,0.5-1c-0.3-0.4-0.6-0.4-1.1,0c-0.2,0.1-0.4,0.3-0.5,0.5
		v-2.1c0.3-0.3,0.3-0.5,0.2-0.7l-0.2-0.1v-0.8c0.5-0.3,0.6-0.5,0.4-0.8c-0.1-0.1-0.2-0.2-0.4-0.2v-0.6c0,0,0.1-0.1,0.2-0.1
		c0.2-0.1,0.3-0.2,0.5-0.4c0.1-0.2,0.1-0.3,0-0.4c-0.1-0.2-0.3-0.3-0.6-0.2v-0.6c0.1,0,0.1-0.1,0.2-0.1c0.1,0,0.2,0,0.2-0.1
		c0.4-0.3,0.5-0.6,0.4-0.8c-0.2-0.2-0.4-0.2-0.8,0V67c0.2,0.1,0.5,0.1,0.7-0.1c0.4-0.3,0.5-0.5,0.4-0.8c-0.2-0.3-0.5-0.3-0.8,0
		c-0.1,0.1-0.2,0.2-0.2,0.2L135.5,65.2z M137.3,74c0.1-0.1,0.1-0.3,0-0.5c-0.2-0.4-0.6-0.4-1.1,0c-0.2,0.1-0.4,0.2-0.5,0.5
		c-0.1,0.2-0.1,0.4,0,0.5c0.2,0.4,0.5,0.4,1.1,0C137.1,74.4,137.2,74.2,137.3,74z M136,72.7c0.1,0.2,0.3,0.2,0.5,0.2
		c0.2,0,0.4-0.1,0.6-0.2c0.5-0.3,0.7-0.6,0.5-0.9c-0.2-0.3-0.5-0.3-1,0C136,72.1,135.9,72.4,136,72.7z M136.3,70.5
		c-0.1,0.2-0.1,0.3,0,0.4c0.2,0.4,0.5,0.4,1,0c0.2-0.1,0.3-0.2,0.5-0.4c0.1-0.2,0.1-0.3,0-0.4c-0.2-0.3-0.5-0.3-1,0
		C136.6,70.2,136.4,70.3,136.3,70.5z M136.6,68.9c-0.1,0.2-0.1,0.3,0,0.4c0.2,0.2,0.5,0.2,0.9-0.1c0.5-0.3,0.6-0.5,0.5-0.8
		s-0.5-0.3-0.9,0C136.9,68.5,136.7,68.7,136.6,68.9L136.6,68.9z M138.6,77.4c-0.3-0.4-0.7-0.4-1.2,0c-0.6,0.4-0.8,0.7-0.6,1.1
		c0.1,0.2,0.3,0.2,0.5,0.2c0.3,0,0.5-0.1,0.7-0.2C138.6,78.2,138.8,77.8,138.6,77.4L138.6,77.4z M136.9,67.5
		c0.2,0.2,0.5,0.2,0.9-0.1c0.2-0.1,0.3-0.2,0.4-0.4c0.1-0.2,0.1-0.3,0-0.4c-0.2-0.3-0.5-0.3-0.9,0C136.9,67,136.8,67.3,136.9,67.5
		L136.9,67.5z M137.1,76.8c0.1,0.2,0.3,0.2,0.5,0.2c0.2,0,0.5-0.1,0.7-0.2c0.6-0.4,0.8-0.7,0.6-1.1c-0.3-0.4-0.7-0.4-1.2,0
		C137,76.1,136.9,76.4,137.1,76.8L137.1,76.8z M139,74c-0.3-0.4-0.6-0.4-1.1,0c-0.2,0.1-0.4,0.2-0.5,0.5c-0.1,0.2-0.1,0.4,0,0.5
		c0.1,0.2,0.3,0.2,0.5,0.2c0.2,0,0.5-0.1,0.7-0.2C139.1,74.7,139.2,74.4,139,74L139,74z M137.6,72.8c-0.1,0.2-0.1,0.4,0,0.5
		c0.1,0.4,0.5,0.4,1.1,0c0.6-0.3,0.7-0.6,0.5-1c-0.2-0.3-0.6-0.3-1.1,0.1C137.9,72.5,137.7,72.6,137.6,72.8L137.6,72.8z M139.4,70.6
		c-0.2-0.3-0.5-0.3-1,0c-0.6,0.3-0.7,0.6-0.5,0.9c0.1,0.2,0.3,0.2,0.5,0.2c0.2,0,0.4-0.1,0.6-0.2C139.5,71.3,139.6,71,139.4,70.6
		L139.4,70.6z M138.2,69.4c-0.1,0.2-0.1,0.3,0,0.4c0.2,0.3,0.5,0.3,1,0c0.2-0.1,0.3-0.2,0.5-0.4c0.1-0.2,0.1-0.3,0-0.4
		c-0.2-0.3-0.5-0.3-1,0C138.5,69.1,138.3,69.2,138.2,69.4L138.2,69.4z M138.5,67.6c-0.1,0.2-0.1,0.3,0,0.4c0.1,0.3,0.5,0.3,0.9,0
		c0.2-0.1,0.3-0.2,0.5-0.4c0.1-0.2,0.1-0.3,0-0.4c-0.2-0.3-0.5-0.3-0.9,0C138.8,67.3,138.6,67.5,138.5,67.6L138.5,67.6z M140.5,76.2
		c-0.3-0.4-0.7-0.4-1.2,0c-0.6,0.4-0.8,0.7-0.6,1.1c0.1,0.2,0.3,0.2,0.5,0.2c0.3,0,0.5-0.1,0.7-0.2C140.5,77,140.7,76.7,140.5,76.2
		L140.5,76.2z M138.8,65.9c-0.1,0.2-0.1,0.3,0,0.4c0.2,0.3,0.5,0.3,0.9,0c0.2-0.1,0.3-0.2,0.4-0.4c0.1-0.2,0.1-0.3,0-0.4
		c-0.1-0.3-0.5-0.3-0.9,0C139,65.7,138.9,65.8,138.8,65.9L138.8,65.9z M139,75.7c0.1,0.2,0.3,0.2,0.5,0.2c0.2,0,0.5-0.1,0.7-0.2
		c0.6-0.4,0.8-0.7,0.6-1.1c-0.3-0.4-0.7-0.4-1.2,0C138.9,74.9,138.8,75.3,139,75.7L139,75.7z M140.9,72.9c-0.3-0.4-0.6-0.4-1.1,0
		c-0.2,0.1-0.4,0.2-0.5,0.5c-0.1,0.2-0.1,0.4,0,0.5c0.1,0.2,0.3,0.2,0.5,0.2c0.2,0,0.5-0.1,0.7-0.2C141,73.5,141.1,73.2,140.9,72.9
		L140.9,72.9z M139.6,72.2c0.2,0.3,0.5,0.3,1.1,0c0.5-0.4,0.7-0.7,0.5-1c-0.2-0.3-0.6-0.3-1.1,0C139.6,71.5,139.4,71.8,139.6,72.2
		L139.6,72.2z M141.3,69.5c-0.2-0.3-0.5-0.3-1,0c-0.6,0.3-0.7,0.6-0.5,0.9c0.1,0.1,0.3,0.2,0.5,0.2c0.2,0,0.4-0.1,0.6-0.2
		C141.4,70.2,141.5,69.9,141.3,69.5L141.3,69.5z M140.1,68.3c-0.1,0.2-0.1,0.3,0,0.4c0.2,0.3,0.5,0.3,1,0c0.2-0.1,0.3-0.2,0.5-0.4
		c0.1-0.2,0.1-0.3,0-0.4c-0.2-0.3-0.5-0.3-1,0C140.4,67.9,140.2,68.1,140.1,68.3L140.1,68.3z M140.4,66.5c-0.1,0.2-0.1,0.3,0,0.4
		c0.2,0.3,0.5,0.3,0.9,0c0.2-0.1,0.4-0.2,0.5-0.4c0.1-0.2,0.1-0.3,0-0.4c-0.2-0.3-0.5-0.3-0.9,0C140.7,66.2,140.5,66.3,140.4,66.5
		L140.4,66.5z M142.4,75.1c-0.3-0.4-0.7-0.4-1.2,0c-0.6,0.4-0.8,0.7-0.6,1.1c0.1,0.2,0.3,0.2,0.5,0.2c0.2,0,0.5-0.1,0.7-0.2
		C142.4,75.9,142.6,75.5,142.4,75.1L142.4,75.1z M140.9,74.5c0.2,0.3,0.6,0.3,1.1,0c0.6-0.4,0.8-0.7,0.6-1.1c-0.3-0.4-0.7-0.4-1.2,0
		C140.8,73.8,140.7,74.2,140.9,74.5L140.9,74.5z M142.8,71.7c-0.3-0.3-0.6-0.3-1.1,0c-0.6,0.4-0.7,0.7-0.5,1.1
		c0.2,0.3,0.6,0.3,1.1,0C142.8,72.4,143,72.1,142.8,71.7L142.8,71.7z M143,70c-0.2-0.3-0.6-0.3-1.1,0c-0.5,0.4-0.6,0.7-0.5,1
		c0.2,0.3,0.5,0.3,1.1,0C143,70.7,143.2,70.3,143,70L143,70z M141.7,69.3c0.1,0.1,0.3,0.2,0.5,0.2c0.2,0,0.4-0.1,0.6-0.2
		c0.5-0.3,0.7-0.6,0.5-0.9c-0.2-0.4-0.5-0.4-1,0C141.7,68.7,141.5,69,141.7,69.3L141.7,69.3z M142,67.1c-0.1,0.2-0.1,0.3,0,0.4
		c0.2,0.3,0.5,0.3,1,0s0.6-0.6,0.5-0.9c-0.2-0.3-0.5-0.2-1,0.1C142.3,66.8,142.1,66.9,142,67.1L142,67.1z M144.3,74
		c-0.3-0.4-0.7-0.4-1.2,0c-0.6,0.4-0.8,0.7-0.6,1.1c0.1,0.2,0.3,0.2,0.5,0.2c0.3,0,0.5-0.1,0.7-0.2C144.3,74.7,144.5,74.3,144.3,74
		L144.3,74z M144.5,72.8c0.1-0.2,0.1-0.4,0-0.5c-0.3-0.4-0.7-0.4-1.2,0c-0.2,0.1-0.4,0.3-0.5,0.5c-0.1,0.2-0.1,0.4,0,0.5
		c0.1,0.2,0.3,0.2,0.5,0.2c0.2,0,0.5-0.1,0.7-0.2C144.1,73.2,144.3,73,144.5,72.8L144.5,72.8z M144.7,70.6c-0.3-0.3-0.6-0.3-1.1,0
		c-0.6,0.4-0.7,0.7-0.5,1.1c0.2,0.3,0.6,0.3,1.1-0.1C144.8,71.3,144.9,71,144.7,70.6L144.7,70.6z M143.4,69.4
		c-0.1,0.2-0.1,0.4,0,0.5c0.1,0.3,0.5,0.3,1.1,0c0.6-0.4,0.7-0.7,0.5-1c-0.2-0.3-0.6-0.3-1.1,0C143.6,69,143.5,69.1,143.4,69.4
		L143.4,69.4z M143.6,68.1c0.1,0.1,0.3,0.2,0.5,0.2c0.2,0,0.4-0.1,0.6-0.2c0.5-0.3,0.7-0.6,0.5-0.9c-0.2-0.4-0.5-0.4-1,0
		C143.6,67.5,143.4,67.8,143.6,68.1L143.6,68.1z M143.9,65.9c-0.1,0.2-0.1,0.4,0,0.5c0.2,0.3,0.5,0.3,1,0c0.2-0.1,0.4-0.3,0.5-0.5
		c0.1-0.2,0.1-0.4,0-0.5c-0.1-0.3-0.5-0.3-1,0C144.2,65.6,144,65.7,143.9,65.9L143.9,65.9z"/>
	<path class="st0" d="M148.5,126h-1.7v-0.6h4v0.6h-1.7v4.8h-0.7L148.5,126z"/>
	<path class="st0" d="M156.1,128.4c0-0.8-0.1-1.7-0.1-2.4h0c-0.2,0.6-0.4,1.3-0.7,2.1l-1,2.6h-0.5l-0.9-2.6
		c-0.3-0.8-0.5-1.5-0.6-2.1h0c0,0.7-0.1,1.6-0.1,2.4l-0.2,2.3h-0.7l0.4-5.4h0.9l0.9,2.6c0.2,0.7,0.4,1.3,0.6,1.8h0
		c0.1-0.5,0.3-1.1,0.6-1.8l1-2.6h0.9l0.3,5.4h-0.7L156.1,128.4z"/>
	<path class="st0" d="M75.4,128.3c1.7,1.4,2.9,3.3,3.4,5.7h-5.3c-0.4-0.9-1-1.7-1.8-2.3c-0.9-0.6-1.9-0.9-2.9-0.8
		c-1.4,0-2.7,0.6-3.6,1.6c-0.9,1.1-1.4,2.5-1.4,4.3c0,1.8,0.5,3.3,1.4,4.3c0.9,1.1,2.2,1.7,3.6,1.6c1,0,2-0.3,2.9-0.8
		c0.8-0.5,1.4-1.3,1.8-2.2h5.4c-0.4,2.2-1.6,4.2-3.4,5.6c-1.7,1.4-3.9,2.1-6.6,2.1c-1.9,0-3.7-0.4-5.3-1.3c-1.5-0.9-2.8-2.2-3.6-3.8
		c-1.7-3.5-1.7-7.5,0-11c0.8-1.6,2-2.9,3.5-3.8c1.6-0.9,3.5-1.4,5.3-1.3C71.4,126.2,73.6,126.9,75.4,128.3z"/>
	<path class="st0" d="M98.4,147.3h-5l-8.4-12.8v12.8h-5v-20.9h5l8.4,12.9v-12.9h5V147.3z"/>
	<path class="st1" d="M110.8,126.2c2,0.9,3.2,2.9,3.2,5c0,1.4-0.3,2.4-1,3.3c-0.7,0.8-1.6,1.4-2.6,1.6v0.1c2.7,0.9,4,2.5,4,5
		c0,1.1-0.3,2.2-0.8,3.2c-0.6,1-1.4,1.7-2.4,2.2c-1.2,0.5-2.5,0.8-3.8,0.8c-2.4,0-4.3-0.6-5.7-1.8c-1.4-1.2-2.2-3-2.3-5.4h4.9
		c0,0.8,0.3,1.6,0.8,2.2c0.5,0.5,1.2,0.8,2.1,0.8c1.2,0.1,2.3-0.8,2.4-2c0-0.1,0-0.2,0-0.3c0-1.7-1.2-2.6-3.7-2.6h-0.9v-4.1h0.9
		c2.2,0,3.3-0.8,3.3-2.4c0-0.6-0.2-1.2-0.6-1.6c-0.9-0.8-2.4-0.8-3.2,0.1c-0.4,0.5-0.7,1.2-0.7,1.9h-4.9c0.1-2.2,0.8-3.9,2.1-5.1
		c1.3-1.2,3.1-1.8,5.4-1.8C108.3,125.4,109.6,125.7,110.8,126.2z"/>
	<path class="st1" d="M123.5,130.2c-0.5-0.4-1.1-0.7-1.7-0.6c-1.1,0-2,0.6-2.4,1.6c-0.5,1.1-0.7,2.7-0.7,4.9
		c0.3-0.8,0.9-1.5,1.7-1.9c0.9-0.5,1.9-0.7,2.9-0.7c2,0,3.5,0.6,4.7,1.8c1.1,1.2,1.7,2.9,1.7,5.1c0,1.3-0.3,2.6-0.9,3.7
		c-0.6,1.1-1.4,2-2.5,2.5c-1.2,0.6-2.6,0.9-4,0.9c-3.1,0-5.2-0.9-6.3-2.8s-1.7-4.5-1.7-7.8c0-3.9,0.6-6.7,1.9-8.5
		c1.2-1.8,3.3-2.7,6-2.7c2.2,0,3.9,0.6,5,1.9s1.8,2.8,1.9,4.7h-4.7C124.3,131.4,124,130.8,123.5,130.2z M119.8,142.3
		c0.5,0.6,1.3,0.8,2.2,0.8c0.8,0,1.5-0.2,2.1-0.7c0.5-0.5,0.8-1.2,0.8-2.2s-0.3-1.7-0.8-2.2c-0.6-0.5-1.3-0.8-2.1-0.8
		c-0.8,0-1.5,0.2-2.1,0.7c-0.6,0.5-0.9,1.3-0.9,2.1C119,140.9,119.3,141.7,119.8,142.3L119.8,142.3z"/>
	<path class="st1" d="M128.9,136.6c0-3.2,0.7-5.8,2-7.7c1.3-1.9,3.4-2.9,6.3-2.9c2.9,0,5,1,6.3,2.9c1.3,1.9,2,4.5,2,7.7
		c0,3.3-0.7,5.9-2,7.8c-1.3,1.9-3.4,2.9-6.3,2.9c-2.9,0-5-1-6.3-2.9C129.5,142.5,128.9,139.9,128.9,136.6z M140.4,136.6
		c0-1.9-0.2-3.3-0.7-4.3c-0.4-1-1.3-1.5-2.6-1.5c-1.3,0-2.2,0.5-2.7,1.5c-0.4,1-0.7,2.4-0.7,4.3c0,1.9,0.2,3.3,0.7,4.3
		c0.5,1,1.3,1.5,2.7,1.5c1.3,0,2.2-0.5,2.6-1.5C140.2,139.9,140.4,138.5,140.4,136.6L140.4,136.6z"/>
</g>
</svg>
